<?xml version="1.0" encoding="UTF-8" standalone="no"?>
<!-- Created with Inkscape (http://www.inkscape.org/) -->

<svg
   xmlns:dc="http://purl.org/dc/elements/1.1/"
   xmlns:cc="http://creativecommons.org/ns#"
   xmlns:rdf="http://www.w3.org/1999/02/22-rdf-syntax-ns#"
   xmlns:svg="http://www.w3.org/2000/svg"
   xmlns="http://www.w3.org/2000/svg"
   xmlns:sodipodi="http://sodipodi.sourceforge.net/DTD/sodipodi-0.dtd"
   xmlns:inkscape="http://www.inkscape.org/namespaces/inkscape"
   width="150"
   height="150"
   id="svg4560"
   version="1.1"
   inkscape:version="0.48.5 r10040"
   sodipodi:docname="penetration4.svg">
  <defs
     id="defs4562">
    <clipPath
       clipPathUnits="userSpaceOnUse"
       id="clipPath4612">
      <rect
         style="fill:#d40000;fill-opacity:1"
         id="rect4614"
         width="74.751289"
         height="70.710678"
         x="312.13715"
         y="497.78842" />
    </clipPath>
    <clipPath
       clipPathUnits="userSpaceOnUse"
       id="clipPath4616">
      <rect
         style="fill:#d40000;fill-opacity:1"
         id="rect4618"
         width="74.751289"
         height="70.710678"
         x="312.13715"
         y="497.78842" />
    </clipPath>
    <clipPath
       clipPathUnits="userSpaceOnUse"
       id="clipPath4620">
      <rect
         style="fill:#d40000;fill-opacity:1"
         id="rect4622"
         width="74.751289"
         height="70.710678"
         x="312.13715"
         y="497.78842" />
    </clipPath>
    <clipPath
       clipPathUnits="userSpaceOnUse"
       id="clipPath4624">
      <rect
         style="fill:#d40000;fill-opacity:1"
         id="rect4626"
         width="74.751289"
         height="70.710678"
         x="312.13715"
         y="497.78842" />
    </clipPath>
    <clipPath
       clipPathUnits="userSpaceOnUse"
       id="clipPath4628">
      <rect
         style="fill:#d40000;fill-opacity:1"
         id="rect4630"
         width="74.751289"
         height="70.710678"
         x="312.13715"
         y="497.78842" />
    </clipPath>
    <clipPath
       clipPathUnits="userSpaceOnUse"
       id="clipPath4632">
      <rect
         style="fill:#d40000;fill-opacity:1"
         id="rect4634"
         width="74.751289"
         height="70.710678"
         x="312.13715"
         y="497.78842" />
    </clipPath>
    <clipPath
       clipPathUnits="userSpaceOnUse"
       id="clipPath4636">
      <rect
         style="fill:#d40000;fill-opacity:1"
         id="rect4638"
         width="74.751289"
         height="70.710678"
         x="312.13715"
         y="497.78842" />
    </clipPath>
    <clipPath
       clipPathUnits="userSpaceOnUse"
       id="clipPath4640">
      <rect
         style="fill:#d40000;fill-opacity:1"
         id="rect4642"
         width="74.751289"
         height="70.710678"
         x="312.13715"
         y="497.78842" />
    </clipPath>
    <clipPath
       id="clipPath3800"
       clipPathUnits="userSpaceOnUse">
      <path
         inkscape:connector-curvature="0"
         id="path3802"
         clip-rule="evenodd"
         d="m 54,769.92 325.92,0 0,-99.84 -325.92,0 0,99.84 z" />
    </clipPath>
    <clipPath
       id="clipPath3810"
       clipPathUnits="userSpaceOnUse">
      <path
         inkscape:connector-curvature="0"
         id="path3812"
         clip-rule="evenodd"
         d="m 54,769.92 325.92,0 0,-99.84 -325.92,0 0,99.84 z" />
    </clipPath>
    <clipPath
       id="clipPath3820"
       clipPathUnits="userSpaceOnUse">
      <path
         inkscape:connector-curvature="0"
         id="path3822"
         clip-rule="evenodd"
         d="m 54,769.92 325.92,0 0,-99.84 -325.92,0 0,99.84 z" />
    </clipPath>
    <clipPath
       id="clipPath3830"
       clipPathUnits="userSpaceOnUse">
      <path
         inkscape:connector-curvature="0"
         id="path3832"
         clip-rule="evenodd"
         d="m 379.92,769.92 0,-99.84 -325.92,0 0,99.84 325.92,0 z" />
    </clipPath>
    <clipPath
       id="clipPath3840"
       clipPathUnits="userSpaceOnUse">
      <path
         inkscape:connector-curvature="0"
         id="path3842"
         clip-rule="evenodd"
         d="m 54,769.92 325.92,0 0,-99.84 -325.92,0 0,99.84 z" />
    </clipPath>
    <clipPath
       id="clipPath3850"
       clipPathUnits="userSpaceOnUse">
      <path
         inkscape:connector-curvature="0"
         id="path3852"
         clip-rule="evenodd"
         d="m 54,769.92 325.92,0 0,-99.84 -325.92,0 0,99.84 z" />
    </clipPath>
    <clipPath
       id="clipPath3860"
       clipPathUnits="userSpaceOnUse">
      <path
         inkscape:connector-curvature="0"
         id="path3862"
         clip-rule="evenodd"
         d="m 54,769.92 325.92,0 0,-99.84 -325.92,0 0,99.84 z" />
    </clipPath>
    <clipPath
       id="clipPath3870"
       clipPathUnits="userSpaceOnUse">
      <path
         inkscape:connector-curvature="0"
         id="path3872"
         clip-rule="evenodd"
         d="m 54,769.92 325.92,0 0,-99.84 -325.92,0 0,99.84 z" />
    </clipPath>
  </defs>
  <sodipodi:namedview
     id="base"
     pagecolor="#ffffff"
     bordercolor="#666666"
     borderopacity="1.0"
     inkscape:pageopacity="0.0"
     inkscape:pageshadow="2"
     inkscape:zoom="3.4404802"
     inkscape:cx="8.384138"
     inkscape:cy="50.469508"
     inkscape:document-units="px"
     inkscape:current-layer="layer1"
     showgrid="false"
     inkscape:window-width="1920"
     inkscape:window-height="1017"
     inkscape:window-x="-8"
     inkscape:window-y="-8"
     inkscape:window-maximized="1"
     showborder="true" />
  <metadata
     id="metadata4565">
    <rdf:RDF>
      <cc:Work
         rdf:about="">
        <dc:format>image/svg+xml</dc:format>
        <dc:type
           rdf:resource="http://purl.org/dc/dcmitype/StillImage" />
        <dc:title></dc:title>
      </cc:Work>
    </rdf:RDF>
  </metadata>
  <g
     inkscape:label="Ebene 1"
     inkscape:groupmode="layer"
     id="layer1"
     transform="translate(0,-902.3622)">
    <g
       transform="matrix(1.25,0,0,-1.25,-35.85,1859.8122)"
       inkscape:label="welds"
       id="g4513">
      <path
         id="path4515"
         style="fill:#000000;fill-opacity:1;fill-rule:evenodd;stroke:none"
         d="m 87.12,705.96 c 0,0.8 0.698,1.44 1.56,1.44 0.862,0 1.56,-0.64 1.56,-1.44 0,-0.8 -0.698,-1.44 -1.56,-1.44 -0.862,0 -1.56,0.64 -1.56,1.44 z"
         inkscape:connector-curvature="0" />
      <path
         id="path4517"
         style="fill:none;stroke:#000000;stroke-width:0.75;stroke-linecap:butt;stroke-linejoin:round;stroke-miterlimit:10;stroke-opacity:1;stroke-dasharray:none"
         d="m 87.12,705.96 c 0,0.8 0.698,1.44 1.56,1.44 0.862,0 1.56,-0.64 1.56,-1.44 0,-0.8 -0.698,-1.44 -1.56,-1.44 -0.862,0 -1.56,0.64 -1.56,1.44 z"
         inkscape:connector-curvature="0" />
    </g>
  </g>
</svg>
