<?xml version="1.0" standalone="no"?>
<!DOCTYPE svg PUBLIC "-//W3C//DTD SVG 1.1//EN" "http://www.w3.org/Graphics/SVG/1.1/DTD/svg11.dtd" >
<svg>
<metadata>
Created by FontForge 20100429 at Wed Dec  8 16:10:27 2010
 By Cameron McCormack
Copyright (c) Tim Ahrens, 2003. All rights reserved.
</metadata>
<defs>
<font id="ZCSB" horiz-adv-x="447" >
  <font-face 
    font-family="ZC"
    font-weight="600"
    font-variant="small-caps"
    font-stretch="normal"
    units-per-em="1000"
    panose-1="0 0 7 0 0 0 0 0 0 0"
    ascent="697"
    descent="-303"
    x-height="690"
    cap-height="697"
    bbox="-257 -293 1021 960"
    underline-thickness="150"
    underline-position="-150"
    stemh="338"
    stemv="424"
    unicode-range="U+0020-F6C3"
  />
<missing-glyph horiz-adv-x="500" 
d="M0 0v700h500v-700h-500zM250 395l170 255h-340zM280 350l170 -255v510zM80 50h340l-170 255zM50 605v-510l170 255z" />
    <glyph glyph-name=".notdef" horiz-adv-x="500" 
d="M0 0v700h500v-700h-500zM250 395l170 255h-340zM280 350l170 -255v510zM80 50h340l-170 255zM50 605v-510l170 255z" />
    <glyph glyph-name="space" unicode=" " horiz-adv-x="178" 
 />
    <glyph glyph-name="exclam" unicode="!" horiz-adv-x="258" 
d="M66 704l147 9l-6 -243l1 -242l-137 -10v243zM230 13l-142 -28l-26 146l142 28z" />
    <glyph glyph-name="quotedbl" unicode="&#x22;" horiz-adv-x="380" 
d="M162 444h-110l-5 246h119zM328 444h-110l-4 246h119z" />
    <glyph glyph-name="numbersign" unicode="#" horiz-adv-x="424" 
d="M9 276h54l11 137h-50v108h58l12 169h117l-13 -169h52l13 169h116l-13 -169h49v-108h-57l-10 -137h51v-107h-59l-13 -169h-116l13 169h-52l-12 -169h-117l12 169h-46v107zM190 413l-10 -137h52l10 137h-52z" />
    <glyph glyph-name="dollar" unicode="$" horiz-adv-x="424" 
d="M294 765l-1 -119l72 2l1 -190l-120 -1l-2 84c-45 -12 -79 -40 -79 -67c0 -75 233 -84 233 -236c0 -60 -40 -106 -105 -151l1 -142h-148l1 91l-88 -2l-12 203l123 5l10 -99c48 23 88 50 88 78c0 71 -232 78 -232 236c0 67 44 116 112 154l-2 154h148z" />
    <glyph glyph-name="percent" unicode="%" horiz-adv-x="724" 
d="M203 298l-121 -4c-41 60 -68 129 -68 199c0 75 31 143 101 196l121 4c42 -60 68 -130 68 -199c0 -75 -31 -143 -101 -196zM151 377c33 32 49 69 49 110c0 38 -14 79 -33 123c-33 -33 -48 -69 -48 -110c0 -38 13 -78 32 -123zM608 2l-121 -4c-41 59 -67 129 -67 198
c0 75 30 143 100 196l122 5c41 -61 67 -130 67 -200c0 -75 -31 -142 -101 -195zM557 80c32 33 48 70 48 110c0 38 -14 79 -33 123c-33 -32 -48 -69 -48 -110c0 -37 13 -78 33 -123zM670 661l-277 -349l-242 -348l-96 65l275 347l243 350z" />
    <glyph glyph-name="ampersand" unicode="&#x26;" horiz-adv-x="604" 
d="M442 466l100 -77l-145 -207l61 -84l17 117l106 -18l-35 -193l-141 -11l-76 93l-59 -84l-173 -10c-58 73 -80 133 -80 184c0 77 50 134 106 184c-36 59 -54 107 -54 152c0 58 29 110 91 175l170 11c55 -57 76 -106 76 -150c0 -78 -65 -138 -129 -196l46 -68zM159 184
c0 -27 11 -58 38 -94l57 88l-65 85c-18 -25 -30 -51 -30 -79zM201 525c0 -22 6 -46 21 -78c29 29 49 58 49 90c0 22 -8 46 -28 72c-29 -29 -42 -53 -42 -84z" />
    <glyph glyph-name="quoteright" unicode="&#x2019;" horiz-adv-x="219" 
d="M50 742l126 4l-18 -218l-111 -1z" />
    <glyph glyph-name="parenleft" unicode="(" horiz-adv-x="269" 
d="M274 -51l-121 -62c-82 154 -123 308 -123 459c0 156 43 309 127 457l117 -61c-66 -123 -99 -260 -99 -397c0 -136 33 -273 99 -396z" />
    <glyph glyph-name="parenright" unicode=")" horiz-adv-x="269" 
d="M-4 741l120 62c82 -154 123 -307 123 -459c0 -156 -43 -309 -128 -457l-116 61c66 123 100 260 100 397s-34 273 -99 396z" />
    <glyph glyph-name="asterisk" unicode="*" horiz-adv-x="366" 
d="M319 431l-86 -51l-50 117l-50 -118l-86 52l76 112l-108 34l40 96l91 -54l-14 143h102l-14 -143l91 54l40 -96l-108 -34z" />
    <glyph glyph-name="plus" unicode="+" horiz-adv-x="377" 
d="M360 274l-109 4l4 -163h-132l4 163l-109 -4v142l109 -4l-4 163h132l-4 -163l109 4v-142z" />
    <glyph glyph-name="comma" unicode="," horiz-adv-x="217" 
d="M50 130l124 3l-17 -242l-110 -2z" />
    <glyph glyph-name="hyphen" unicode="-" horiz-adv-x="238" 
d="M119 285l-104 -4v128l104 -4l104 4v-128z" />
    <glyph glyph-name="period" unicode="." horiz-adv-x="229" 
d="M197 18l-139 -33l-26 143l140 33z" />
    <glyph glyph-name="slash" unicode="/" horiz-adv-x="271" 
d="M264 767l-71 -430l-52 -429l-134 14l67 427l56 433z" />
    <glyph glyph-name="zero" unicode="0" horiz-adv-x="417" 
d="M247 2l-136 -6c-64 112 -104 233 -104 353c0 132 50 248 162 341l137 6c63 -113 103 -234 103 -353c0 -132 -49 -249 -162 -341zM190 99c67 66 100 144 100 235c0 84 -28 173 -64 259c-67 -66 -100 -144 -100 -235c0 -84 29 -173 64 -259zM285 315l-112 -46l-40 105
l112 46z" />
    <glyph glyph-name="one" unicode="1" horiz-adv-x="346" 
d="M103 688l140 6l-2 -411v-161l104 -3v-119h-344v119l104 3v161z" />
    <glyph glyph-name="two" unicode="2" horiz-adv-x="424" 
d="M55 460l4 223l170 14c107 -69 148 -140 148 -214c0 -125 -117 -252 -233 -382l131 9l5 110l120 2l-4 -222h-375l-6 126c156 178 226 264 226 341c0 43 -22 77 -66 112l-4 -119h-116z" />
    <glyph glyph-name="three" unicode="3" horiz-adv-x="424" 
d="M378 562l-93 -152c79 -52 111 -109 111 -168c0 -100 -90 -193 -183 -240l-159 -4l-9 224l120 4l7 -122c49 24 90 68 90 120c0 46 -35 94 -129 149l124 207h-99l-4 -103l-117 2l2 202l336 17z" />
    <glyph glyph-name="four" unicode="4" horiz-adv-x="424" 
d="M222 503h126l-3 -251l82 2v-118l-80 2l2 -138h-128l2 138l-213 -2l-5 109l127 463l122 -37l-121 -420l92 -1z" />
    <glyph glyph-name="five" unicode="5" horiz-adv-x="424" 
d="M362 497l-122 -1l-3 81h-73l-3 -118c173 -49 240 -131 240 -219c0 -89 -69 -175 -187 -238l-160 -5l-8 221l119 4l7 -118c60 32 95 75 95 120c0 61 -65 104 -219 144l6 315l307 14z" />
    <glyph glyph-name="six" unicode="6" horiz-adv-x="424" 
d="M253 675c-55 -106 -89 -209 -96 -314l104 94l105 9c26 -67 40 -147 40 -204c0 -116 -55 -200 -153 -258l-148 -5c-54 103 -77 210 -77 315c0 140 41 266 99 397zM264 344l-105 -91c6 -52 20 -103 42 -153c57 41 79 89 79 151c0 28 -6 62 -16 93z" />
    <glyph glyph-name="seven" unicode="7" horiz-adv-x="424" 
d="M150 454l-119 1l4 226l364 18l6 -135l-195 -587l-135 39l198 556h-117z" />
    <glyph glyph-name="eight" unicode="8" horiz-adv-x="424" 
d="M21 195c0 55 23 118 79 174c-41 34 -73 75 -73 133c0 68 46 130 127 186l140 10c58 -50 90 -108 90 -173c0 -50 -18 -107 -70 -164c52 -34 96 -78 96 -152c0 -84 -59 -155 -138 -207l-155 -10c-56 54 -96 130 -96 203zM273 190c0 45 -34 78 -77 109
c-34 -36 -45 -74 -45 -102c0 -39 19 -79 53 -112c46 30 69 65 69 105zM151 511c0 -41 32 -69 73 -95c24 28 35 63 35 91c0 34 -16 71 -46 100c-43 -28 -62 -61 -62 -96z" />
    <glyph glyph-name="nine" unicode="9" horiz-adv-x="424" 
d="M160 12c59 108 97 215 105 325l-103 -91l-106 -9c-24 60 -38 137 -38 194c0 118 59 201 157 257l149 4c49 -101 71 -202 71 -302c0 -144 -45 -275 -108 -409zM145 436c0 -32 6 -55 14 -81l105 90c-6 49 -18 97 -37 145c-61 -41 -82 -89 -82 -154z" />
    <glyph glyph-name="colon" unicode=":" horiz-adv-x="212" 
d="M187 161l-135 -32l-24 138l134 32zM187 423l-135 -32l-24 138l134 32z" />
    <glyph glyph-name="semicolon" unicode=";" horiz-adv-x="229" 
d="M197 324l-134 -32l-25 138l135 32zM60 130l125 3l-18 -242l-109 -2z" />
    <glyph glyph-name="less" unicode="&#x3c;" horiz-adv-x="377" 
d="M272 121l-241 161v126l241 161l74 -106l-202 -117l202 -118z" />
    <glyph glyph-name="equal" unicode="=" horiz-adv-x="377" 
d="M351 379l-162 4l-163 -4v124l163 -4l162 4v-124zM351 187l-162 4l-163 -4v125l163 -4l162 4v-125z" />
    <glyph glyph-name="greater" unicode="&#x3e;" horiz-adv-x="377" 
d="M105 569l242 -161v-126l-242 -161l-73 106l201 117l-201 118z" />
    <glyph glyph-name="question" unicode="?" horiz-adv-x="343" 
d="M54 594l18 143c194 -22 267 -106 267 -204c0 -128 -130 -157 -130 -241c0 -23 10 -64 19 -85l-131 -40c-18 41 -28 97 -28 135c0 133 124 156 124 216c0 35 -36 61 -139 76zM258 12l-139 -26l-22 125l138 27z" />
    <glyph glyph-name="at" unicode="@" horiz-adv-x="626" 
d="M574 176l36 -91c-72 -38 -166 -66 -255 -66c-169 0 -337 101 -337 330c0 217 150 321 311 321c177 0 282 -126 282 -265c0 -134 -97 -237 -229 -237c-120 0 -194 84 -194 180c0 82 52 152 148 152c59 0 105 -26 133 -91l-75 -47c-14 23 -32 36 -52 36
c-27 0 -45 -25 -45 -56c0 -38 28 -69 79 -69c59 0 116 38 116 122c0 89 -65 161 -165 161c-111 0 -191 -90 -191 -207c0 -123 89 -228 238 -228c66 0 138 21 200 55z" />
    <glyph glyph-name="A" unicode="A" horiz-adv-x="448" 
d="M305 0l-21 151l-62 -3l-65 3l-24 -151h-132l128 687l197 8l121 -695h-142zM176 270l47 3l43 -3l-43 300z" />
    <glyph glyph-name="B" unicode="B" horiz-adv-x="457" 
d="M52 -2l3 359l-3 326l325 15c26 -51 44 -110 44 -161c0 -63 -26 -112 -68 -152c49 -48 80 -110 80 -177c0 -94 -62 -162 -200 -207zM291 217c0 37 -17 70 -44 97c-21 -10 -43 -19 -67 -28l2 -181c76 23 109 60 109 112zM182 579l-2 -182c57 25 102 58 102 112
c0 25 -7 51 -14 70h-86z" />
    <glyph glyph-name="C" unicode="C" horiz-adv-x="434" 
d="M390 457l-126 -3l-2 121h-73c-17 -65 -26 -127 -26 -194c0 -107 22 -205 100 -267l5 146l126 3l-5 -256l-194 -14c-125 98 -168 222 -168 377c0 104 19 210 55 313l310 14z" />
    <glyph glyph-name="D" unicode="D" horiz-adv-x="452" 
d="M52 -3l1 349l-2 337l300 14c52 -124 75 -235 75 -334c0 -146 -49 -267 -182 -363zM180 356l1 -253c75 51 109 127 109 238c0 69 -13 148 -42 236h-68v-221z" />
    <glyph glyph-name="E" unicode="E" horiz-adv-x="449" 
d="M282 216l125 3l-1 -219h-355l3 354l-3 327l355 17l-1 -198l-126 -3v82h-97v-166l165 7v-124l-165 4v-192l98 4z" />
    <glyph glyph-name="F" unicode="F" horiz-adv-x="441" 
d="M192 0h-141l4 337l-3 344l362 17l-2 -215l-125 -4l-1 96h-95v-193l167 7v-136l-167 4z" />
    <glyph glyph-name="G" unicode="G" horiz-adv-x="457" 
d="M400 7l-177 -14c-143 89 -198 219 -198 381c0 100 21 207 56 309l318 14l-2 -204l-128 -2l-1 86h-81c-17 -62 -27 -129 -27 -195c0 -112 28 -217 119 -283v171l-59 3v109h222v-110l-39 -2z" />
    <glyph glyph-name="H" unicode="H" horiz-adv-x="500" 
d="M191 690l-1 -273l60 4l60 -4l-1 273h141l-5 -342l5 -348h-141l1 285l-60 -4l-60 4l1 -285h-141l5 348l-5 342h141z" />
    <glyph glyph-name="I" unicode="I" horiz-adv-x="241" 
d="M50 690h141l-3 -337l3 -353h-141l3 353z" />
    <glyph glyph-name="J" unicode="J" horiz-adv-x="433" 
d="M40 243l125 3l6 -130c69 58 90 122 90 238c0 66 -6 156 -12 221h-77l-2 -119l-126 -1l-2 226l337 16c11 -112 19 -233 19 -317c0 -166 -24 -283 -184 -378l-168 -4z" />
    <glyph glyph-name="K" unicode="K" horiz-adv-x="471" 
d="M50 690h141l-1 -294c92 82 105 169 105 292l139 4c0 -131 -7 -238 -101 -341l139 -351h-153l-93 260c-11 -8 -23 -16 -36 -23l1 -237h-141l5 349z" />
    <glyph glyph-name="L" unicode="L" horiz-adv-x="426" 
d="M285 239l126 1l-2 -240h-358l4 259l-4 431h141l-2 -576l92 6z" />
    <glyph glyph-name="M" unicode="M" horiz-adv-x="678" 
d="M414 26l-156 -4l-48 283l-43 258l5 -563h-124l10 688l199 4l46 -286l38 -252l37 254l48 279l194 4l10 -691h-128l5 562l-43 -253z" />
    <glyph glyph-name="N" unicode="N" horiz-adv-x="514" 
d="M170 0h-123l6 688l172 5l124 -528l-8 525h122l-6 -689l-171 -4l-125 531z" />
    <glyph glyph-name="O" unicode="O" horiz-adv-x="445" 
d="M305 2l-167 -4c-78 94 -118 232 -118 350c0 119 42 244 120 341l166 4c78 -95 119 -233 119 -350c0 -120 -42 -244 -120 -341zM219 580c-40 -70 -60 -153 -60 -232c0 -88 23 -168 67 -238c39 69 59 152 59 233c0 88 -23 169 -66 237z" />
    <glyph glyph-name="P" unicode="P" horiz-adv-x="435" 
d="M186 578v-263c68 29 98 85 98 162c0 31 -5 64 -14 101h-84zM192 0h-141l3 348l-3 335l331 14c21 -77 34 -146 34 -205c0 -143 -67 -242 -226 -305z" />
    <glyph glyph-name="Q" unicode="Q" horiz-adv-x="445" 
d="M427 344c0 -91 -22 -175 -70 -249l104 -155l-124 -79l-89 141l-129 -6c-62 110 -99 232 -99 351c0 132 45 249 151 342l157 7c62 -112 99 -232 99 -352zM210 115c57 63 79 138 79 217c0 81 -22 163 -52 245c-56 -63 -78 -137 -78 -218c0 -80 21 -163 51 -244z" />
    <glyph glyph-name="R" unicode="R" horiz-adv-x="444" 
d="M185 0h-134l3 349l-3 334l328 14c17 -54 29 -116 29 -173c0 -79 -24 -142 -86 -194l119 -330h-149l-80 265l-28 -11zM183 581l-2 -199c71 27 97 71 97 126c0 26 -5 54 -11 73h-84z" />
    <glyph glyph-name="S" unicode="S" horiz-adv-x="380" 
d="M31 225l123 4l9 -119c43 30 78 63 78 101c0 86 -221 97 -221 271c0 100 74 165 175 208l142 4l1 -209l-119 -2l-2 102c-41 -17 -69 -49 -69 -86c0 -92 220 -104 220 -271c0 -93 -69 -157 -175 -225l-151 -6z" />
    <glyph glyph-name="T" unicode="T" horiz-adv-x="404" 
d="M132 0l3 562l-131 -5v133h396v-133l-131 5l3 -562h-140z" />
    <glyph glyph-name="U" unicode="U" horiz-adv-x="497" 
d="M304 687l141 7c0 -11 -4 -228 -4 -330c0 -83 2 -154 21 -360l-139 -10l-10 141l-105 -131l-136 -10c-16 157 -18 260 -19 356l-2 337l142 7c0 -12 -2 -192 -2 -286c0 -106 3 -170 10 -252l103 119v412z" />
    <glyph glyph-name="V" unicode="V" horiz-adv-x="448" 
d="M149 690l75 -558l84 558h130l-125 -688l-187 -7l-116 695h139z" />
    <glyph glyph-name="W" unicode="W" horiz-adv-x="654" 
d="M514 690h125l-67 -690l-188 -1l-33 281l-27 252l-26 -253l-34 -279l-184 -1l-65 691h129l43 -566l26 244l35 289l162 3l34 -295l25 -241z" />
    <glyph glyph-name="X" unicode="X" horiz-adv-x="456" 
d="M452 690l-124 -337l129 -335l-136 -42l-95 291l-75 -267h-149l126 352l-125 321l136 42l90 -275l73 250h150z" />
    <glyph glyph-name="Y" unicode="Y" 
d="M151 0l2 237l-158 436l138 40l94 -324l78 301h148l-164 -464l3 -226h-141z" />
    <glyph glyph-name="Z" unicode="Z" horiz-adv-x="439" 
d="M160 462l-118 2l5 217l346 18l6 -151l-243 -447l133 9l6 120h120l-6 -230h-381l-6 124l256 456h-113z" />
    <glyph glyph-name="bracketleft" unicode="[" horiz-adv-x="265" 
d="M173 351l2 -329l86 -2v-118h-212l3 450l-3 436h212v-118l-86 -2z" />
    <glyph glyph-name="backslash" unicode="\" horiz-adv-x="271" 
d="M78 337l-71 430l134 15l55 -433l68 -427l-134 -14z" />
    <glyph glyph-name="bracketright" unicode="]" horiz-adv-x="265" 
d="M92 339l-2 329l-86 2v118h212l-3 -450l3 -436h-212v118l86 2z" />
    <glyph glyph-name="asciicircum" unicode="^" horiz-adv-x="377" 
d="M20 428l107 315h123l108 -315l-108 -30l-63 222l-61 -222z" />
    <glyph glyph-name="underscore" unicode="_" horiz-adv-x="305" 
d="M302 -165h-298v124h298v-124z" />
    <glyph glyph-name="quoteleft" unicode="&#x2018;" horiz-adv-x="219" 
d="M170 531l-126 -4l18 217l110 2z" />
    <glyph glyph-name="a" unicode="a" horiz-adv-x="448" 
d="M305 0l-21 151l-62 -3l-65 3l-24 -151h-132l128 687l197 8l121 -695h-142zM176 270l47 3l43 -3l-43 300z" />
    <glyph glyph-name="b" unicode="b" horiz-adv-x="457" 
d="M52 -2l3 359l-3 326l325 15c26 -51 44 -110 44 -161c0 -63 -26 -112 -68 -152c49 -48 80 -110 80 -177c0 -94 -62 -162 -200 -207zM291 217c0 37 -17 70 -44 97c-21 -10 -43 -19 -67 -28l2 -181c76 23 109 60 109 112zM182 579l-2 -182c57 25 102 58 102 112
c0 25 -7 51 -14 70h-86z" />
    <glyph glyph-name="c" unicode="c" horiz-adv-x="434" 
d="M390 457l-126 -3l-2 121h-73c-17 -65 -26 -127 -26 -194c0 -107 22 -205 100 -267l5 146l126 3l-5 -256l-194 -14c-125 98 -168 222 -168 377c0 104 19 210 55 313l310 14z" />
    <glyph glyph-name="d" unicode="d" horiz-adv-x="452" 
d="M52 -3l1 349l-2 337l300 14c52 -124 75 -235 75 -334c0 -146 -49 -267 -182 -363zM180 356l1 -253c75 51 109 127 109 238c0 69 -13 148 -42 236h-68v-221z" />
    <glyph glyph-name="e" unicode="e" horiz-adv-x="449" 
d="M282 216l125 3l-1 -219h-355l3 354l-3 327l355 17l-1 -198l-126 -3v82h-97v-166l165 7v-124l-165 4v-192l98 4z" />
    <glyph glyph-name="f" unicode="f" horiz-adv-x="441" 
d="M192 0h-141l4 337l-3 344l362 17l-2 -215l-125 -4l-1 96h-95v-193l167 7v-136l-167 4z" />
    <glyph glyph-name="g" unicode="g" horiz-adv-x="457" 
d="M400 7l-177 -14c-143 89 -198 219 -198 381c0 100 21 207 56 309l318 14l-2 -204l-128 -2l-1 86h-81c-17 -62 -27 -129 -27 -195c0 -112 28 -217 119 -283v171l-59 3v109h222v-110l-39 -2z" />
    <glyph glyph-name="h" unicode="h" horiz-adv-x="500" 
d="M191 690l-1 -273l60 4l60 -4l-1 273h141l-5 -342l5 -348h-141l1 285l-60 -4l-60 4l1 -285h-141l5 348l-5 342h141z" />
    <glyph glyph-name="i" unicode="i" horiz-adv-x="241" 
d="M50 690h141l-3 -337l3 -353h-141l3 353z" />
    <glyph glyph-name="j" unicode="j" horiz-adv-x="433" 
d="M40 243l125 3l6 -130c69 58 90 122 90 238c0 66 -6 156 -12 221h-77l-2 -119l-126 -1l-2 226l337 16c11 -112 19 -233 19 -317c0 -166 -24 -283 -184 -378l-168 -4z" />
    <glyph glyph-name="k" unicode="k" horiz-adv-x="471" 
d="M50 690h141l-1 -294c92 82 105 169 105 292l139 4c0 -131 -7 -238 -101 -341l139 -351h-153l-93 260c-11 -8 -23 -16 -36 -23l1 -237h-141l5 349z" />
    <glyph glyph-name="l" unicode="l" horiz-adv-x="426" 
d="M285 239l126 1l-2 -240h-358l4 259l-4 431h141l-2 -576l92 6z" />
    <glyph glyph-name="m" unicode="m" horiz-adv-x="678" 
d="M414 26l-156 -4l-48 283l-43 258l5 -563h-124l10 688l199 4l46 -286l38 -252l37 254l48 279l194 4l10 -691h-128l5 562l-43 -253z" />
    <glyph glyph-name="n" unicode="n" horiz-adv-x="514" 
d="M170 0h-123l6 688l172 5l124 -528l-8 525h122l-6 -689l-171 -4l-125 531z" />
    <glyph glyph-name="o" unicode="o" horiz-adv-x="445" 
d="M305 2l-167 -4c-78 94 -118 232 -118 350c0 119 42 244 120 341l166 4c78 -95 119 -233 119 -350c0 -120 -42 -244 -120 -341zM219 580c-40 -70 -60 -153 -60 -232c0 -88 23 -168 67 -238c39 69 59 152 59 233c0 88 -23 169 -66 237z" />
    <glyph glyph-name="p" unicode="p" horiz-adv-x="435" 
d="M186 578v-263c68 29 98 85 98 162c0 31 -5 64 -14 101h-84zM192 0h-141l3 348l-3 335l331 14c21 -77 34 -146 34 -205c0 -143 -67 -242 -226 -305z" />
    <glyph glyph-name="q" unicode="q" horiz-adv-x="445" 
d="M427 344c0 -91 -22 -175 -70 -249l104 -155l-124 -79l-89 141l-129 -6c-62 110 -99 232 -99 351c0 132 45 249 151 342l157 7c62 -112 99 -232 99 -352zM210 115c57 63 79 138 79 217c0 81 -22 163 -52 245c-56 -63 -78 -137 -78 -218c0 -80 21 -163 51 -244z" />
    <glyph glyph-name="r" unicode="r" horiz-adv-x="444" 
d="M185 0h-134l3 349l-3 334l328 14c17 -54 29 -116 29 -173c0 -79 -24 -142 -86 -194l119 -330h-149l-80 265l-28 -11zM183 581l-2 -199c71 27 97 71 97 126c0 26 -5 54 -11 73h-84z" />
    <glyph glyph-name="s" unicode="s" horiz-adv-x="380" 
d="M31 225l123 4l9 -119c43 30 78 63 78 101c0 86 -221 97 -221 271c0 100 74 165 175 208l142 4l1 -209l-119 -2l-2 102c-41 -17 -69 -49 -69 -86c0 -92 220 -104 220 -271c0 -93 -69 -157 -175 -225l-151 -6z" />
    <glyph glyph-name="t" unicode="t" horiz-adv-x="404" 
d="M132 0l3 562l-131 -5v133h396v-133l-131 5l3 -562h-140z" />
    <glyph glyph-name="u" unicode="u" horiz-adv-x="497" 
d="M304 687l141 7c0 -11 -4 -228 -4 -330c0 -83 2 -154 21 -360l-139 -10l-10 141l-105 -131l-136 -10c-16 157 -18 260 -19 356l-2 337l142 7c0 -12 -2 -192 -2 -286c0 -106 3 -170 10 -252l103 119v412z" />
    <glyph glyph-name="v" unicode="v" horiz-adv-x="448" 
d="M149 690l75 -558l84 558h130l-125 -688l-187 -7l-116 695h139z" />
    <glyph glyph-name="w" unicode="w" horiz-adv-x="654" 
d="M514 690h125l-67 -690l-188 -1l-33 281l-27 252l-26 -253l-34 -279l-184 -1l-65 691h129l43 -566l26 244l35 289l162 3l34 -295l25 -241z" />
    <glyph glyph-name="x" unicode="x" horiz-adv-x="456" 
d="M452 690l-124 -337l129 -335l-136 -42l-95 291l-75 -267h-149l126 352l-125 321l136 42l90 -275l73 250h150z" />
    <glyph glyph-name="y" unicode="y" 
d="M151 0l2 237l-158 436l138 40l94 -324l78 301h148l-164 -464l3 -226h-141z" />
    <glyph glyph-name="z" unicode="z" horiz-adv-x="439" 
d="M160 462l-118 2l5 217l346 18l6 -151l-243 -447l133 9l6 120h120l-6 -230h-381l-6 124l256 456h-113z" />
    <glyph glyph-name="braceleft" unicode="{" horiz-adv-x="254" 
d="M210 806l58 -96c-67 -39 -82 -83 -82 -129c0 -39 11 -78 11 -118s-12 -80 -61 -118c49 -38 61 -78 61 -119c0 -39 -11 -78 -11 -117c0 -46 15 -90 82 -129l-58 -96c-129 60 -152 129 -152 196c0 38 7 75 7 110c0 37 -8 71 -45 100v110c37 29 45 63 45 100
c0 35 -7 72 -7 110c0 67 23 137 152 196z" />
    <glyph glyph-name="bar" unicode="|" horiz-adv-x="228" 
d="M48 736h132l-3 -453l3 -476h-132l4 476z" />
    <glyph glyph-name="braceright" unicode="}" horiz-adv-x="254" 
d="M44 -116l-57 96c65 39 80 83 80 129c0 38 -10 77 -10 115c0 42 12 82 61 121c-49 39 -61 79 -61 121c0 38 10 77 10 115c0 46 -15 90 -80 129l57 96c129 -60 152 -129 152 -196c0 -37 -7 -75 -7 -109c0 -38 8 -72 44 -101v-110c-36 -29 -44 -63 -44 -101
c0 -34 7 -71 7 -109c0 -67 -23 -137 -152 -196z" />
    <glyph glyph-name="asciitilde" unicode="~" horiz-adv-x="377" 
d="M304 434l78 -89c-47 -55 -86 -90 -134 -90c-53 0 -90 46 -120 46c-20 0 -34 -19 -55 -45l-77 89c47 55 86 90 133 90c53 0 90 -46 121 -46c19 0 33 18 54 45z" />
    <glyph glyph-name="exclamdown" unicode="&#xa1;" horiz-adv-x="258" 
d="M193 -14l-148 -9l6 243l-1 242l138 10l-1 -243zM29 677l141 28l26 -146l-142 -28z" />
    <glyph glyph-name="cent" unicode="&#xa2;" horiz-adv-x="424" 
d="M368 313l-2 -219l-56 -3l2 -146h-147l2 157c-85 69 -139 164 -139 264c0 93 47 176 139 227l-2 172h147l-2 -149l62 2l-3 -210l-119 -1l-2 95c-60 -24 -89 -68 -89 -128c0 -68 36 -127 86 -165l3 105z" />
    <glyph glyph-name="sterling" unicode="&#xa3;" horiz-adv-x="424" 
d="M16 288v115l48 -2c5 135 39 222 126 287l176 4l1 -185l-121 -3l-1 76c-34 -32 -48 -81 -50 -180l102 5v-116l-105 1c-4 -60 -13 -120 -29 -180l116 7l4 97h120l-1 -214h-362l-13 118c19 58 29 113 34 171z" />
    <glyph glyph-name="fraction" unicode="&#x2044;" horiz-adv-x="101" 
d="M358 661l-277 -349l-242 -348l-96 65l275 347l244 350z" />
    <glyph glyph-name="yen" unicode="&#xa5;" horiz-adv-x="424" 
d="M419 254v-99h-121c-28 -68 -63 -131 -104 -190l-115 73c28 41 51 79 71 117h-130v99h176l6 15l-81 -14l-13 46h-89v100h61l-77 279l148 23l75 -351c22 92 29 197 26 336l140 10c2 -106 -5 -205 -22 -297h49v-100h-71c-4 -16 -9 -32 -14 -47h85z" />
    <glyph glyph-name="florin" unicode="&#x192;" horiz-adv-x="422" 
d="M204 -185l-146 -19c0 20 14 130 14 291v273l-70 -2v119l71 -3v18c0 103 26 178 130 242l158 4l-1 -175l-106 -4l-1 75c-47 -30 -56 -58 -56 -123v-38l109 5v-119h-104v-273c0 -137 2 -249 2 -271z" />
    <glyph glyph-name="section" unicode="&#xa7;" horiz-adv-x="400" 
d="M153 90l7 -99c40 25 76 57 76 91c0 72 -221 67 -221 224c0 47 24 91 66 128c-27 26 -47 60 -47 108c0 75 48 131 144 178l172 3l1 -177l-120 -1l-3 85c-40 -15 -66 -42 -66 -72c0 -73 217 -81 217 -238c0 -48 -22 -88 -57 -124c26 -23 44 -53 44 -96
c0 -83 -68 -150 -148 -200l-179 -5l-10 192zM144 324c0 -32 35 -49 77 -69c18 16 30 31 30 49c0 31 -36 49 -78 71c-17 -15 -29 -33 -29 -51z" />
    <glyph glyph-name="currency" unicode="&#xa4;" horiz-adv-x="424" 
d="M444 557l-77 -89c11 -30 17 -66 17 -107c0 -42 -6 -79 -18 -110l79 -91l-83 -85l-73 85c-23 -12 -49 -18 -79 -18c-29 0 -54 6 -76 17l-70 -86l-84 87l76 91c-11 30 -16 66 -16 107c0 42 6 79 17 110l-77 90l83 86l71 -85c23 12 49 18 79 18c29 0 55 -5 77 -16l69 82z
M269 361c0 69 -18 106 -56 106c-40 0 -58 -41 -58 -107c0 -68 18 -108 57 -108c40 0 57 43 57 109z" />
    <glyph glyph-name="quotesingle" unicode="'" horiz-adv-x="214" 
d="M162 444h-110l-5 246h119z" />
    <glyph glyph-name="quotedblleft" unicode="&#x201c;" horiz-adv-x="374" 
d="M325 531l-126 -4l18 217l110 2zM170 531l-126 -4l18 217l110 2z" />
    <glyph glyph-name="guillemotleft" unicode="&#xab;" horiz-adv-x="432" 
d="M121 565l106 -38l-74 -176l74 -190l-106 -36l-106 223zM306 565l106 -38l-74 -176l74 -190l-106 -36l-106 223z" />
    <glyph glyph-name="guilsinglleft" unicode="&#x2039;" horiz-adv-x="252" 
d="M122 574l109 -40l-73 -183l73 -198l-109 -37l-107 231z" />
    <glyph glyph-name="guilsinglright" unicode="&#x203a;" horiz-adv-x="252" 
d="M130 116l-110 40l74 183l-74 198l110 37l107 -231z" />
    <glyph glyph-name="endash" unicode="&#x2013;" horiz-adv-x="477" 
d="M239 285l-224 -4v128l224 -4l223 4v-128z" />
    <glyph glyph-name="dagger" unicode="&#x2020;" horiz-adv-x="367" 
d="M251 710l-4 -211h116v-117h-115l3 -94l-11 -332h-113l-12 332l4 94h-115v117h116l-5 211h136z" />
    <glyph glyph-name="daggerdbl" unicode="&#x2021;" horiz-adv-x="371" 
d="M118 -82l3 177h-117v116h116l-2 103l2 103h-116v116h117l-3 177h136l-5 -177h118v-116h-116l2 -103l-2 -103h116v-116h-118l5 -177h-136z" />
    <glyph glyph-name="periodcentered" unicode="&#xb7;" horiz-adv-x="223" 
d="M191 292l-134 -32l-25 138l135 32z" />
    <glyph glyph-name="paragraph" unicode="&#xb6;" horiz-adv-x="611" 
d="M563 0h-126v582h-75v-582h-126v237c-159 67 -223 150 -223 270c0 51 13 115 34 183h516v-690zM144 516c0 -59 29 -110 92 -140v206h-81c-7 -22 -11 -45 -11 -66z" />
    <glyph glyph-name="bullet" unicode="&#x2022;" horiz-adv-x="296" 
d="M277 248l-219 -50l-39 223l218 51z" />
    <glyph glyph-name="quotesinglbase" unicode="&#x201a;" horiz-adv-x="219" 
d="M50 127l126 3l-18 -216l-111 -1z" />
    <glyph glyph-name="quotedblbase" unicode="&#x201e;" horiz-adv-x="374" 
d="M50 127l126 4l-18 -217l-111 -2zM205 127l125 4l-17 -217l-111 -2z" />
    <glyph glyph-name="quotedblright" unicode="&#x201d;" horiz-adv-x="374" 
d="M50 742l126 4l-18 -218l-111 -1zM205 742l125 4l-17 -218l-111 -1z" />
    <glyph glyph-name="guillemotright" unicode="&#xbb;" horiz-adv-x="432" 
d="M311 125l-106 38l74 176l-74 190l106 36l106 -223zM126 125l-106 38l74 176l-74 190l106 36l106 -223z" />
    <glyph glyph-name="ellipsis" unicode="&#x2026;" horiz-adv-x="952" 
d="M251 18l-139 -33l-26 143l140 33zM587 18l-140 -33l-25 143l140 33zM922 18l-139 -33l-26 143l140 33z" />
    <glyph glyph-name="perthousand" unicode="&#x2030;" horiz-adv-x="1036" 
d="M203 298l-121 -4c-41 60 -68 129 -68 199c0 75 31 143 101 196l121 4c42 -60 68 -130 68 -199c0 -75 -31 -143 -101 -196zM151 377c33 32 49 69 49 110c0 38 -14 79 -33 123c-33 -33 -48 -69 -48 -110c0 -38 13 -78 32 -123zM608 2l-121 -4c-41 59 -67 129 -67 198
c0 75 30 143 100 196l122 5c41 -61 67 -130 67 -200c0 -75 -31 -142 -101 -195zM557 80c32 33 48 70 48 110c0 38 -14 79 -33 123c-33 -32 -48 -69 -48 -110c0 -37 13 -78 33 -123zM920 2l-121 -4c-41 59 -68 129 -68 198c0 75 31 143 101 196l121 5c42 -61 68 -130 68 -200
c0 -75 -31 -142 -101 -195zM868 80c33 33 49 70 49 110c0 38 -14 79 -33 123c-33 -32 -48 -69 -48 -110c0 -37 13 -78 32 -123zM670 661l-277 -349l-242 -348l-96 65l275 347l243 350z" />
    <glyph glyph-name="questiondown" unicode="&#xbf;" horiz-adv-x="343" 
d="M288 96l-17 -143c-194 22 -268 106 -268 204c0 128 130 157 130 241c0 23 -9 64 -18 85l131 40c18 -41 28 -97 28 -135c0 -133 -125 -156 -125 -216c0 -35 36 -61 139 -76zM85 678l138 26l22 -125l-137 -27z" />
    <glyph glyph-name="grave" unicode="`" horiz-adv-x="207" 
d="M187 604l-99 -71l-121 142l110 79z" />
    <glyph glyph-name="acute" unicode="&#xb4;" horiz-adv-x="207" 
d="M120 533l-99 71l109 150l111 -79z" />
    <glyph glyph-name="circumflex" unicode="&#x2c6;" horiz-adv-x="207" 
d="M-52 610l157 163l155 -161l-86 -68l-71 83l-71 -84z" />
    <glyph glyph-name="tilde" unicode="&#x2dc;" horiz-adv-x="207" 
d="M218 721l61 -79c-39 -45 -73 -75 -124 -75c-49 0 -80 27 -110 27c-23 0 -37 -15 -56 -34l-61 79c40 45 73 74 124 74c49 0 80 -27 110 -27c23 0 37 15 56 35z" />
    <glyph glyph-name="macron" unicode="&#xaf;" horiz-adv-x="207" 
d="M260 583h-312v114h312v-114z" />
    <glyph glyph-name="breve" unicode="&#x2d8;" horiz-adv-x="207" 
d="M152 717h115c-4 -112 -70 -161 -165 -161c-97 0 -156 51 -162 161h115c2 -44 16 -71 49 -71s47 25 48 71z" />
    <glyph glyph-name="dotaccent" unicode="&#x2d9;" horiz-adv-x="207" 
d="M193 617l-137 -48l-41 124l137 49z" />
    <glyph glyph-name="dieresis" unicode="&#xa8;" horiz-adv-x="207" 
d="M92 596l-134 -31l-28 126l134 32zM278 596l-134 -31l-28 126l134 32z" />
    <glyph glyph-name="ring" unicode="&#x2da;" horiz-adv-x="207" 
d="M236 676c0 -72 -56 -120 -132 -120s-132 48 -132 120c0 71 55 119 132 119c76 0 132 -48 132 -119zM144 676c0 26 -17 42 -40 42c-24 0 -40 -18 -40 -43c0 -26 17 -42 40 -42s40 17 40 43z" />
    <glyph glyph-name="cedilla" unicode="&#xb8;" horiz-adv-x="207" 
d="M55 86l89 -9l-13 -110c80 -22 109 -69 109 -115c0 -63 -54 -113 -195 -145l-25 89c91 15 108 26 108 46c0 17 -16 35 -98 52z" />
    <glyph glyph-name="hungarumlaut" unicode="&#x2dd;" horiz-adv-x="207" 
d="M32 533l-97 60l122 199l107 -67zM220 533l-96 60l122 199l107 -67z" />
    <glyph glyph-name="ogonek" unicode="&#x2db;" horiz-adv-x="207" 
d="M169 -111l60 -63c-32 -40 -71 -57 -121 -57c-85 0 -129 47 -129 110c0 48 24 88 107 143l105 -22c-80 -42 -110 -74 -110 -109c0 -22 9 -37 33 -37c21 0 39 12 55 35z" />
    <glyph glyph-name="caron" unicode="&#x2c7;" horiz-adv-x="207" 
d="M260 684l-157 -163l-155 161l86 68l71 -82l71 83z" />
    <glyph glyph-name="emdash" unicode="&#x2014;" horiz-adv-x="947" 
d="M474 285l-459 -4v128l459 -4l458 4v-128z" />
    <glyph glyph-name="AE" unicode="&#xc6;" horiz-adv-x="657" 
d="M301 0l-18 150l-61 -3l-65 3l-28 -150h-132l143 679l-3 2l439 17l21 -196l-128 -3l-12 78h-98l23 -164l173 7l7 -126l-163 3l26 -187l94 4l-10 100l127 4l22 -218h-357zM179 270l46 3l44 -3l-36 299z" />
    <glyph glyph-name="ordfeminine" unicode="&#xaa;" horiz-adv-x="362" 
d="M336 407l-113 -10l-5 61l-60 -54l-108 -4c-17 48 -27 100 -27 148c0 83 30 155 141 207l156 4l2 -169c2 -107 12 -170 14 -183zM207 555l-2 109c-51 -27 -66 -63 -66 -105c0 -17 3 -39 8 -56zM332 274l-153 4l-149 -4v95l149 -3l153 3v-95z" />
    <glyph glyph-name="Lslash" unicode="&#x141;" horiz-adv-x="426" 
d="M285 239l126 1l-2 -240h-358l4 259v31l-49 -22l-41 112l88 40l-2 270h141l-1 -208l79 35l41 -111l-120 -55l-1 -237l92 6z" />
    <glyph glyph-name="Oslash" unicode="&#xd8;" horiz-adv-x="458" 
d="M305 2l-154 -4l-7 8l-34 -81l-113 53l73 152c-30 71 -45 147 -45 218c0 119 45 243 128 341l154 4l7 -8l33 81l114 -53l-73 -152c30 -71 45 -148 45 -218c0 -120 -45 -243 -128 -341zM303 343c0 10 0 20 -1 30l-99 -225c9 -16 18 -31 29 -46c47 72 71 158 71 241z
M226 589c-47 -72 -71 -158 -71 -241c0 -11 0 -20 1 -30l98 225c-8 16 -17 31 -28 46z" />
    <glyph glyph-name="OE" unicode="&#x152;" horiz-adv-x="662" 
d="M494 214l127 3l-1 -217h-487c-68 109 -113 227 -113 348c0 126 49 242 149 333l451 17l-1 -196l-128 -3v79h-102c14 -52 25 -107 29 -164l151 6v-124l-151 3c-5 -67 -18 -131 -43 -190l117 4zM228 114c40 66 57 151 57 231c0 82 -18 153 -40 231
c-56 -62 -85 -136 -85 -217c0 -80 28 -164 68 -245z" />
    <glyph glyph-name="ordmasculine" unicode="&#xba;" horiz-adv-x="351" 
d="M314 274l-138 4l-145 -4v95l145 -3l138 3v-95zM216 405l-134 -7c-34 54 -59 117 -59 179c0 67 30 129 112 176l135 8c33 -55 59 -117 59 -181c0 -67 -31 -129 -113 -175zM166 488c34 23 45 49 45 78c0 30 -11 70 -25 104c-34 -22 -46 -49 -46 -78c0 -31 11 -69 26 -104z
" />
    <glyph glyph-name="ae" unicode="&#xe6;" horiz-adv-x="657" 
d="M301 0l-18 150l-61 -3l-65 3l-28 -150h-132l143 679l-3 2l439 17l21 -196l-128 -3l-12 78h-98l23 -164l173 7l7 -126l-163 3l26 -187l94 4l-10 100l127 4l22 -218h-357zM179 270l46 3l44 -3l-36 299z" />
    <glyph glyph-name="lslash" unicode="&#x142;" horiz-adv-x="426" 
d="M285 239l126 1l-2 -240h-358l4 259v31l-49 -22l-41 112l88 40l-2 270h141l-1 -208l79 35l41 -111l-120 -55l-1 -237l92 6z" />
    <glyph glyph-name="oslash" unicode="&#xf8;" horiz-adv-x="458" 
d="M305 2l-154 -4l-7 8l-34 -81l-113 53l73 152c-30 71 -45 147 -45 218c0 119 45 243 128 341l154 4l7 -8l33 81l114 -53l-73 -152c30 -71 45 -148 45 -218c0 -120 -45 -243 -128 -341zM303 343c0 10 0 20 -1 30l-99 -225c9 -16 18 -31 29 -46c47 72 71 158 71 241z
M226 589c-47 -72 -71 -158 -71 -241c0 -11 0 -20 1 -30l98 225c-8 16 -17 31 -28 46z" />
    <glyph glyph-name="oe" unicode="&#x153;" horiz-adv-x="662" 
d="M494 214l127 3l-1 -217h-487c-68 109 -113 227 -113 348c0 126 49 242 149 333l451 17l-1 -196l-128 -3v79h-102c14 -52 25 -107 29 -164l151 6v-124l-151 3c-5 -67 -18 -131 -43 -190l117 4zM228 114c40 66 57 151 57 231c0 82 -18 153 -40 231
c-56 -62 -85 -136 -85 -217c0 -80 28 -164 68 -245z" />
    <glyph glyph-name="germandbls" unicode="&#xdf;" horiz-adv-x="753" 
d="M31 225l123 4l9 -119c43 30 78 63 78 101c0 86 -221 97 -221 271c0 100 74 165 175 208l142 4l1 -209l-119 -2l-2 102c-41 -17 -69 -49 -69 -86c0 -92 220 -104 220 -271c0 -93 -69 -157 -175 -225l-151 -6zM404 225l123 4l9 -119c43 30 78 63 78 101
c0 86 -221 97 -221 271c0 100 74 165 176 208l141 4l1 -209l-119 -2l-2 102c-41 -17 -69 -49 -69 -86c0 -92 220 -104 220 -271c0 -93 -69 -157 -175 -225l-151 -6z" />
    <glyph glyph-name="onesuperior" unicode="&#xb9;" horiz-adv-x="360" 
d="M37 758v99l220 9l1 -362l87 -3v-98h-315v100l105 2v250z" />
    <glyph glyph-name="logicalnot" unicode="&#xac;" horiz-adv-x="377" 
d="M332 462l5 -261h-118l5 153l-203 -6v118z" />
    <glyph glyph-name="mu" unicode="&#xb5;" horiz-adv-x="678" 
d="M414 26l-156 -4l-48 283l-43 258l5 -563h-124l10 688l199 4l46 -286l38 -252l37 254l48 279l194 4l10 -691h-128l5 562l-43 -253z" />
    <glyph glyph-name="trademark" unicode="&#x2122;" horiz-adv-x="562" 
d="M435 431l-91 -2l-20 101l-18 88l2 -199h-72l6 269l116 3l19 -94l15 -91l16 91l19 91l113 3l5 -272h-74l3 199l-18 -87zM68 419l1 188l-60 -3v86h206v-86l-60 3l2 -188h-89z" />
    <glyph glyph-name="Eth" unicode="&#xd0;" horiz-adv-x="456" 
d="M56 -3l1 296h-37v115h37l-2 275l300 14c52 -124 75 -235 75 -334c0 -146 -49 -267 -181 -363zM242 293h-58l1 -190c75 51 109 127 109 238c0 69 -13 149 -42 238h-68v-171h58v-115z" />
    <glyph glyph-name="onehalf" unicode="&#xbd;" horiz-adv-x="724" 
d="M443 245l2 134l-52 -67l-242 -348l-96 65l212 268h-240v96l88 2v193l-82 2v95l199 9l1 -300l71 -2v-49l26 33l243 350l97 -65l-217 -273l140 10c73 -43 101 -84 101 -124c0 -68 -81 -128 -164 -192l70 5l2 47l104 3l-2 -137h-281l-3 106c113 95 156 124 156 155
c0 14 -10 26 -31 42l-3 -58h-99z" />
    <glyph glyph-name="plusminus" unicode="&#xb1;" horiz-adv-x="377" 
d="M352 287l-102 5l5 -133h-132l4 133l-102 -5v128l102 -4l-4 132h132l-5 -132l102 4v-128zM352 11l-163 4l-164 -4v115l164 -5l163 5v-115z" />
    <glyph glyph-name="Thorn" unicode="&#xde;" horiz-adv-x="428" 
d="M191 0h-141l4 340l-4 350h141l-3 -95c145 -39 232 -123 232 -244c0 -119 -85 -213 -231 -260zM184 457v-246c62 22 97 74 97 130c0 53 -31 97 -97 116z" />
    <glyph glyph-name="onequarter" unicode="&#xbc;" horiz-adv-x="724" 
d="M670 661l-277 -349l-242 -348l-96 65l212 268h-240v96l88 2v193l-82 2v95l199 9l1 -300l71 -2v-49l26 33l243 350zM566 273h106l-2 -116l49 2v-95l-48 1l2 -65h-108l1 65l-149 -2l-5 88l90 256l104 -30l-86 -221l48 -1z" />
    <glyph glyph-name="divide" unicode="&#xf7;" horiz-adv-x="377" 
d="M260 118l-122 -23l-21 117l122 24zM260 478l-122 -23l-21 117l122 24zM357 274l-168 4l-169 -4v142l169 -4l168 4v-142z" />
    <glyph glyph-name="brokenbar" unicode="&#xa6;" horiz-adv-x="228" 
d="M180 -193h-132l4 345h125zM180 736l-3 -345h-125l-4 345h132z" />
    <glyph glyph-name="degree" unicode="&#xb0;" horiz-adv-x="298" 
d="M274 605c0 -81 -46 -136 -127 -136c-78 0 -123 53 -123 131c0 81 47 137 127 137c78 0 123 -54 123 -132zM178 606c0 26 -7 45 -28 45c-20 0 -29 -21 -29 -52c0 -26 7 -45 27 -45c21 0 30 23 30 52z" />
    <glyph glyph-name="thorn" unicode="&#xfe;" horiz-adv-x="428" 
d="M191 0h-141l4 340l-4 350h141l-3 -95c145 -39 232 -123 232 -244c0 -119 -85 -213 -231 -260zM184 457v-246c62 22 97 74 97 130c0 53 -31 97 -97 116z" />
    <glyph glyph-name="threequarters" unicode="&#xbe;" horiz-adv-x="724" 
d="M670 661l-277 -349l-242 -348l-96 65l275 347l243 350zM284 584l-56 -59c51 -29 71 -59 71 -90c0 -55 -59 -106 -122 -137l-137 -3l-7 140l103 3l5 -58c24 10 43 23 43 40c0 20 -22 43 -86 77l83 103h-51l-3 -48l-101 1l2 131l254 11zM566 273h106l-2 -116l49 2v-95
l-48 1l2 -65h-108l1 65l-149 -2l-5 88l90 256l104 -30l-86 -221l48 -1z" />
    <glyph glyph-name="twosuperior" unicode="&#xb2;" horiz-adv-x="360" 
d="M45 695l4 162l153 10c87 -49 119 -97 119 -145c0 -80 -95 -154 -189 -233l94 5l3 61l109 3l-3 -155h-315l-5 110c130 113 183 155 183 197c0 20 -15 37 -45 57l-3 -72h-105z" />
    <glyph glyph-name="registered" unicode="&#xae;" horiz-adv-x="480" 
d="M23 586c0 137 92 244 220 244c129 0 214 -107 214 -244s-94 -243 -223 -243s-211 106 -211 243zM225 466h-76l3 123l-3 122l110 4c54 -26 77 -58 77 -92c0 -25 -11 -48 -32 -67l39 -84c21 28 33 68 33 115c0 98 -50 162 -136 162s-138 -64 -138 -163
c0 -98 51 -163 137 -163c42 0 76 16 99 43h-75l-22 55l-16 -4v-51zM223 644v-53c21 5 35 13 35 25s-12 21 -35 28z" />
    <glyph glyph-name="minus" unicode="&#x2212;" horiz-adv-x="377" 
d="M360 274l-171 4l-171 -4v142l171 -4l171 4v-142z" />
    <glyph glyph-name="eth" unicode="&#xf0;" horiz-adv-x="456" 
d="M56 -3l1 296h-37v115h37l-2 275l300 14c52 -124 75 -235 75 -334c0 -146 -49 -267 -181 -363zM242 293h-58l1 -190c75 51 109 127 109 238c0 69 -13 149 -42 238h-68v-171h58v-115z" />
    <glyph glyph-name="multiply" unicode="&#xd7;" horiz-adv-x="377" 
d="M372 444l-97 -99l97 -99l-92 -92l-91 105l-92 -105l-92 92l97 99l-97 99l92 92l92 -105l91 105z" />
    <glyph glyph-name="threesuperior" unicode="&#xb3;" horiz-adv-x="360" 
d="M319 751l-70 -79c62 -35 86 -71 86 -109c0 -64 -71 -125 -145 -159l-144 -3l-7 158l108 3l6 -72c33 14 61 33 61 58c0 26 -27 54 -102 94l98 126h-70l-3 -61l-105 1l2 147l283 12z" />
    <glyph glyph-name="copyright" unicode="&#xa9;" horiz-adv-x="701" 
d="M479 300l-1 -171l-166 -9c-93 57 -143 140 -143 227s50 164 159 202l155 4l-3 -167l-108 -1l-1 68c-53 -17 -74 -51 -74 -98c0 -54 26 -100 70 -130l3 76zM19 344c0 197 137 371 331 371c191 0 332 -169 332 -369c0 -198 -137 -371 -330 -371c-192 0 -333 168 -333 369z
M119 341c0 -152 89 -264 231 -264c148 0 233 123 233 271c0 152 -90 265 -231 265c-149 0 -233 -124 -233 -272z" />
    <glyph glyph-name="Aacute" unicode="&#xc1;" 
d="M305 0l-21 151l-62 -3l-65 3l-24 -151h-132l128 687l197 8l121 -695h-142zM240 699l-99 71l109 150l110 -80zM176 270l46 3l44 -3l-43 300z" />
    <glyph glyph-name="Acircumflex" unicode="&#xc2;" 
d="M305 0l-21 151l-62 -3l-65 3l-24 -151h-132l128 687l197 8l121 -695h-142zM68 775l157 163l155 -160l-86 -68l-71 82l-71 -83zM176 270l46 3l44 -3l-43 300z" />
    <glyph glyph-name="Adieresis" unicode="&#xc4;" 
d="M305 0l-21 151l-62 -3l-65 3l-24 -151h-132l128 687l197 8l121 -695h-142zM212 762l-135 -31l-28 126l135 31zM398 762l-134 -31l-29 126l135 31zM176 270l46 3l44 -3l-43 300z" />
    <glyph glyph-name="Agrave" unicode="&#xc0;" 
d="M305 0l-21 151l-62 -3l-65 3l-24 -151h-132l128 687l197 8l121 -695h-142zM306 770l-98 -71l-121 141l110 80zM176 270l46 3l44 -3l-43 300z" />
    <glyph glyph-name="Aring" unicode="&#xc5;" 
d="M305 0l-21 151l-62 -3l-65 3l-24 -151h-132l128 687l197 8l121 -695h-142zM356 842c0 -73 -56 -120 -132 -120s-132 48 -132 120c0 71 55 118 131 118c77 0 133 -47 133 -118zM176 270l46 3l44 -3l-43 300zM264 842c0 26 -17 41 -40 41c-24 0 -40 -17 -40 -42
c0 -26 17 -42 40 -42s40 17 40 43z" />
    <glyph glyph-name="Atilde" unicode="&#xc3;" 
d="M305 0l-21 151l-62 -3l-65 3l-24 -151h-132l128 687l197 8l121 -695h-142zM338 887l61 -80c-39 -44 -73 -74 -124 -74c-49 0 -80 27 -110 27c-23 0 -38 -15 -56 -34l-61 78c40 45 73 75 124 75c49 0 80 -27 110 -27c23 0 36 15 56 35zM176 270l46 3l44 -3l-43 300z" />
    <glyph glyph-name="Ccedilla" unicode="&#xc7;" horiz-adv-x="434" 
d="M390 457l-126 -3l-2 121h-73c-17 -65 -26 -127 -26 -194c0 -107 22 -205 100 -267l5 146l126 3l-5 -256l-129 -9l-3 -31c79 -22 108 -69 108 -115c0 -63 -53 -113 -194 -145l-26 89c92 15 109 26 109 46c0 17 -17 35 -98 52l15 119c-107 95 -144 212 -144 357
c0 104 19 210 55 313l310 14z" />
    <glyph glyph-name="Eacute" unicode="&#xc9;" horiz-adv-x="449" 
d="M282 216l125 3l-1 -219h-355l3 354l-3 327l355 17l-1 -198l-126 -3v82h-97v-166l165 7v-124l-165 4v-192l98 4zM253 699l-98 71l109 150l110 -80z" />
    <glyph glyph-name="Ecircumflex" unicode="&#xca;" horiz-adv-x="449" 
d="M282 216l125 3l-1 -219h-355l3 354l-3 327l355 17l-1 -198l-126 -3v82h-97v-166l165 7v-124l-165 4v-192l98 4zM81 775l158 163l155 -160l-87 -68l-71 82l-71 -83z" />
    <glyph glyph-name="Edieresis" unicode="&#xcb;" horiz-adv-x="449" 
d="M282 216l125 3l-1 -219h-355l3 354l-3 327l355 17l-1 -198l-126 -3v82h-97v-166l165 7v-124l-165 4v-192l98 4zM226 762l-135 -31l-28 126l134 31zM411 762l-134 -31l-28 126l134 31z" />
    <glyph glyph-name="Egrave" unicode="&#xc8;" horiz-adv-x="449" 
d="M282 216l125 3l-1 -219h-355l3 354l-3 327l355 17l-1 -198l-126 -3v82h-97v-166l165 7v-124l-165 4v-192l98 4zM320 770l-99 -71l-120 141l110 80z" />
    <glyph glyph-name="Iacute" unicode="&#xcd;" horiz-adv-x="241" 
d="M50 690h141l-3 -337l3 -353h-141l3 353zM137 699l-99 71l109 150l110 -80z" />
    <glyph glyph-name="Icircumflex" unicode="&#xce;" horiz-adv-x="241" 
d="M50 690h141l-3 -337l3 -353h-141l3 353zM-35 775l157 163l155 -160l-86 -68l-71 82l-71 -83z" />
    <glyph glyph-name="Idieresis" unicode="&#xcf;" horiz-adv-x="241" 
d="M50 690h141l-3 -337l3 -353h-141l3 353zM109 762l-135 -31l-27 126l134 31zM295 762l-134 -31l-29 126l135 31z" />
    <glyph glyph-name="Igrave" unicode="&#xcc;" horiz-adv-x="241" 
d="M50 690h141l-3 -337l3 -353h-141l3 353zM203 770l-98 -71l-121 141l110 80z" />
    <glyph glyph-name="Ntilde" unicode="&#xd1;" horiz-adv-x="514" 
d="M170 0h-123l6 688l172 5l124 -528l-8 525h122l-6 -689l-171 -4l-125 531zM380 887l62 -80c-40 -44 -73 -74 -125 -74c-49 0 -80 27 -109 27c-23 0 -38 -15 -56 -34l-62 78c40 45 73 75 124 75c50 0 80 -27 110 -27c23 0 37 15 56 35z" />
    <glyph glyph-name="Oacute" unicode="&#xd3;" 
d="M276 3l-157 -7c-62 110 -99 232 -99 351c0 132 45 249 151 342l157 7c62 -112 99 -232 99 -352c0 -131 -45 -248 -151 -341zM210 115c56 63 78 138 78 217c0 81 -21 163 -51 245c-56 -63 -79 -137 -79 -218c0 -80 22 -163 52 -244zM251 699l-99 71l109 150l110 -80z" />
    <glyph glyph-name="Ocircumflex" unicode="&#xd4;" 
d="M276 3l-157 -7c-62 110 -99 232 -99 351c0 132 45 249 151 342l157 7c62 -112 99 -232 99 -352c0 -131 -45 -248 -151 -341zM210 115c56 63 78 138 78 217c0 81 -21 163 -51 245c-56 -63 -79 -137 -79 -218c0 -80 22 -163 52 -244zM79 775l157 163l155 -160l-86 -68
l-71 82l-71 -83z" />
    <glyph glyph-name="Odieresis" unicode="&#xd6;" 
d="M276 3l-157 -7c-62 110 -99 232 -99 351c0 132 45 249 151 342l157 7c62 -112 99 -232 99 -352c0 -131 -45 -248 -151 -341zM210 115c56 63 78 138 78 217c0 81 -21 163 -51 245c-56 -63 -79 -137 -79 -218c0 -80 22 -163 52 -244zM223 762l-135 -31l-27 126l134 31z
M409 762l-134 -31l-29 126l135 31z" />
    <glyph glyph-name="Ograve" unicode="&#xd2;" 
d="M276 3l-157 -7c-62 110 -99 232 -99 351c0 132 45 249 151 342l157 7c62 -112 99 -232 99 -352c0 -131 -45 -248 -151 -341zM210 115c56 63 78 138 78 217c0 81 -21 163 -51 245c-56 -63 -79 -137 -79 -218c0 -80 22 -163 52 -244zM317 770l-98 -71l-121 141l110 80z" />
    <glyph glyph-name="Otilde" unicode="&#xd5;" 
d="M276 3l-157 -7c-62 110 -99 232 -99 351c0 132 45 249 151 342l157 7c62 -112 99 -232 99 -352c0 -131 -45 -248 -151 -341zM210 115c56 63 78 138 78 217c0 81 -21 163 -51 245c-56 -63 -79 -137 -79 -218c0 -80 22 -163 52 -244zM349 887l61 -80
c-39 -44 -73 -74 -124 -74c-49 0 -80 27 -110 27c-23 0 -37 -15 -56 -34l-61 78c40 45 73 75 124 75c49 0 80 -27 110 -27c23 0 36 15 56 35z" />
    <glyph glyph-name="Scaron" unicode="&#x160;" horiz-adv-x="380" 
d="M354 850l-155 -160l138 4l1 -209l-119 -2l-2 102c-41 -17 -69 -49 -69 -86c0 -92 220 -104 220 -271c0 -93 -69 -157 -175 -225l-151 -6l-11 228l123 4l9 -119c43 30 78 63 78 101c0 86 -221 97 -221 271c0 100 73 164 173 207l-152 159l87 68l70 -83l72 84z" />
    <glyph glyph-name="Uacute" unicode="&#xda;" horiz-adv-x="497" 
d="M304 687l141 7c0 -11 -4 -228 -4 -330c0 -83 2 -154 21 -360l-139 -10l-10 141l-105 -131l-136 -10c-16 157 -18 260 -19 356l-2 337l142 7c0 -12 -2 -192 -2 -286c0 -106 3 -170 10 -252l103 119v412zM268 699l-98 71l109 150l110 -80z" />
    <glyph glyph-name="Ucircumflex" unicode="&#xdb;" horiz-adv-x="497" 
d="M304 687l141 7c0 -11 -4 -228 -4 -330c0 -83 2 -154 21 -360l-139 -10l-10 141l-105 -131l-136 -10c-16 157 -18 260 -19 356l-2 337l142 7c0 -12 -2 -192 -2 -286c0 -106 3 -170 10 -252l103 119v412zM97 775l157 163l155 -160l-86 -68l-71 82l-71 -83z" />
    <glyph glyph-name="Udieresis" unicode="&#xdc;" horiz-adv-x="497" 
d="M304 687l141 7c0 -11 -4 -228 -4 -330c0 -83 2 -154 21 -360l-139 -10l-10 141l-105 -131l-136 -10c-16 157 -18 260 -19 356l-2 337l142 7c0 -12 -2 -192 -2 -286c0 -106 3 -170 10 -252l103 119v412zM241 762l-135 -31l-28 126l135 31zM427 762l-134 -31l-29 126
l135 31z" />
    <glyph glyph-name="Ugrave" unicode="&#xd9;" horiz-adv-x="497" 
d="M304 687l141 7c0 -11 -4 -228 -4 -330c0 -83 2 -154 21 -360l-139 -10l-10 141l-105 -131l-136 -10c-16 157 -18 260 -19 356l-2 337l142 7c0 -12 -2 -192 -2 -286c0 -106 3 -170 10 -252l103 119v412zM335 770l-98 -71l-121 141l110 80z" />
    <glyph glyph-name="Yacute" unicode="&#xdd;" 
d="M151 0l2 237l-158 436l138 40l94 -324l78 301h148l-164 -464l3 -226h-141zM240 699l-99 71l109 150l110 -80z" />
    <glyph glyph-name="Ydieresis" unicode="&#x178;" 
d="M151 0l2 237l-158 436l138 40l94 -324l78 301h148l-164 -464l3 -226h-141zM212 762l-135 -31l-28 126l135 31zM398 762l-134 -31l-29 126l135 31z" />
    <glyph glyph-name="Zcaron" unicode="&#x17d;" horiz-adv-x="439" 
d="M376 850l-155 -160l172 9l6 -151l-243 -447l133 9l6 120h120l-6 -230h-381l-6 124l256 456h-113l-5 -118l-118 2l5 217l168 9l-152 158l87 68l70 -83l72 84z" />
    <glyph glyph-name="aacute" unicode="&#xe1;" 
d="M305 0l-21 151l-62 -3l-65 3l-24 -151h-132l128 687l197 8l121 -695h-142zM240 699l-99 71l109 150l110 -80zM176 270l46 3l44 -3l-43 300z" />
    <glyph glyph-name="acircumflex" unicode="&#xe2;" 
d="M305 0l-21 151l-62 -3l-65 3l-24 -151h-132l128 687l197 8l121 -695h-142zM68 775l157 163l155 -160l-86 -68l-71 82l-71 -83zM176 270l46 3l44 -3l-43 300z" />
    <glyph glyph-name="adieresis" unicode="&#xe4;" 
d="M305 0l-21 151l-62 -3l-65 3l-24 -151h-132l128 687l197 8l121 -695h-142zM212 762l-135 -31l-28 126l135 31zM398 762l-134 -31l-29 126l135 31zM176 270l46 3l44 -3l-43 300z" />
    <glyph glyph-name="agrave" unicode="&#xe0;" 
d="M305 0l-21 151l-62 -3l-65 3l-24 -151h-132l128 687l197 8l121 -695h-142zM306 770l-98 -71l-121 141l110 80zM176 270l46 3l44 -3l-43 300z" />
    <glyph glyph-name="aring" unicode="&#xe5;" 
d="M305 0l-21 151l-62 -3l-65 3l-24 -151h-132l128 687l197 8l121 -695h-142zM356 842c0 -73 -56 -120 -132 -120s-132 48 -132 120c0 71 55 118 131 118c77 0 133 -47 133 -118zM176 270l46 3l44 -3l-43 300zM264 842c0 26 -17 41 -40 41c-24 0 -40 -17 -40 -42
c0 -26 17 -42 40 -42s40 17 40 43z" />
    <glyph glyph-name="atilde" unicode="&#xe3;" 
d="M305 0l-21 151l-62 -3l-65 3l-24 -151h-132l128 687l197 8l121 -695h-142zM338 887l61 -80c-39 -44 -73 -74 -124 -74c-49 0 -80 27 -110 27c-23 0 -38 -15 -56 -34l-61 78c40 45 73 75 124 75c49 0 80 -27 110 -27c23 0 36 15 56 35zM176 270l46 3l44 -3l-43 300z" />
    <glyph glyph-name="ccedilla" unicode="&#xe7;" horiz-adv-x="434" 
d="M390 457l-126 -3l-2 121h-73c-17 -65 -26 -127 -26 -194c0 -107 22 -205 100 -267l5 146l126 3l-5 -256l-129 -9l-3 -31c79 -22 108 -69 108 -115c0 -63 -53 -113 -194 -145l-26 89c92 15 109 26 109 46c0 17 -17 35 -98 52l15 119c-107 95 -144 212 -144 357
c0 104 19 210 55 313l310 14z" />
    <glyph glyph-name="eacute" unicode="&#xe9;" horiz-adv-x="449" 
d="M282 216l125 3l-1 -219h-355l3 354l-3 327l355 17l-1 -198l-126 -3v82h-97v-166l165 7v-124l-165 4v-192l98 4zM253 699l-98 71l109 150l110 -80z" />
    <glyph glyph-name="ecircumflex" unicode="&#xea;" horiz-adv-x="449" 
d="M282 216l125 3l-1 -219h-355l3 354l-3 327l355 17l-1 -198l-126 -3v82h-97v-166l165 7v-124l-165 4v-192l98 4zM81 775l158 163l155 -160l-87 -68l-71 82l-71 -83z" />
    <glyph glyph-name="edieresis" unicode="&#xeb;" horiz-adv-x="449" 
d="M282 216l125 3l-1 -219h-355l3 354l-3 327l355 17l-1 -198l-126 -3v82h-97v-166l165 7v-124l-165 4v-192l98 4zM226 762l-135 -31l-28 126l134 31zM411 762l-134 -31l-28 126l134 31z" />
    <glyph glyph-name="egrave" unicode="&#xe8;" horiz-adv-x="449" 
d="M282 216l125 3l-1 -219h-355l3 354l-3 327l355 17l-1 -198l-126 -3v82h-97v-166l165 7v-124l-165 4v-192l98 4zM320 770l-99 -71l-120 141l110 80z" />
    <glyph glyph-name="iacute" unicode="&#xed;" horiz-adv-x="241" 
d="M50 690h141l-3 -337l3 -353h-141l3 353zM137 699l-99 71l109 150l110 -80z" />
    <glyph glyph-name="icircumflex" unicode="&#xee;" horiz-adv-x="241" 
d="M50 690h141l-3 -337l3 -353h-141l3 353zM-35 775l157 163l155 -160l-86 -68l-71 82l-71 -83z" />
    <glyph glyph-name="idieresis" unicode="&#xef;" horiz-adv-x="241" 
d="M50 690h141l-3 -337l3 -353h-141l3 353zM109 762l-135 -31l-27 126l134 31zM295 762l-134 -31l-29 126l135 31z" />
    <glyph glyph-name="igrave" unicode="&#xec;" horiz-adv-x="241" 
d="M50 690h141l-3 -337l3 -353h-141l3 353zM203 770l-98 -71l-121 141l110 80z" />
    <glyph glyph-name="ntilde" unicode="&#xf1;" horiz-adv-x="514" 
d="M170 0h-123l6 688l172 5l124 -528l-8 525h122l-6 -689l-171 -4l-125 531zM380 887l62 -80c-40 -44 -73 -74 -125 -74c-49 0 -80 27 -109 27c-23 0 -38 -15 -56 -34l-62 78c40 45 73 75 124 75c50 0 80 -27 110 -27c23 0 37 15 56 35z" />
    <glyph glyph-name="oacute" unicode="&#xf3;" 
d="M276 3l-157 -7c-62 110 -99 232 -99 351c0 132 45 249 151 342l157 7c62 -112 99 -232 99 -352c0 -131 -45 -248 -151 -341zM210 115c56 63 78 138 78 217c0 81 -21 163 -51 245c-56 -63 -79 -137 -79 -218c0 -80 22 -163 52 -244zM251 699l-99 71l109 150l110 -80z" />
    <glyph glyph-name="ocircumflex" unicode="&#xf4;" 
d="M276 3l-157 -7c-62 110 -99 232 -99 351c0 132 45 249 151 342l157 7c62 -112 99 -232 99 -352c0 -131 -45 -248 -151 -341zM210 115c56 63 78 138 78 217c0 81 -21 163 -51 245c-56 -63 -79 -137 -79 -218c0 -80 22 -163 52 -244zM79 775l157 163l155 -160l-86 -68
l-71 82l-71 -83z" />
    <glyph glyph-name="odieresis" unicode="&#xf6;" 
d="M276 3l-157 -7c-62 110 -99 232 -99 351c0 132 45 249 151 342l157 7c62 -112 99 -232 99 -352c0 -131 -45 -248 -151 -341zM210 115c56 63 78 138 78 217c0 81 -21 163 -51 245c-56 -63 -79 -137 -79 -218c0 -80 22 -163 52 -244zM223 762l-135 -31l-27 126l134 31z
M409 762l-134 -31l-29 126l135 31z" />
    <glyph glyph-name="ograve" unicode="&#xf2;" 
d="M276 3l-157 -7c-62 110 -99 232 -99 351c0 132 45 249 151 342l157 7c62 -112 99 -232 99 -352c0 -131 -45 -248 -151 -341zM210 115c56 63 78 138 78 217c0 81 -21 163 -51 245c-56 -63 -79 -137 -79 -218c0 -80 22 -163 52 -244zM317 770l-98 -71l-121 141l110 80z" />
    <glyph glyph-name="otilde" unicode="&#xf5;" 
d="M276 3l-157 -7c-62 110 -99 232 -99 351c0 132 45 249 151 342l157 7c62 -112 99 -232 99 -352c0 -131 -45 -248 -151 -341zM210 115c56 63 78 138 78 217c0 81 -21 163 -51 245c-56 -63 -79 -137 -79 -218c0 -80 22 -163 52 -244zM349 887l61 -80
c-39 -44 -73 -74 -124 -74c-49 0 -80 27 -110 27c-23 0 -37 -15 -56 -34l-61 78c40 45 73 75 124 75c49 0 80 -27 110 -27c23 0 36 15 56 35z" />
    <glyph glyph-name="scaron" unicode="&#x161;" horiz-adv-x="380" 
d="M354 850l-155 -160l138 4l1 -209l-119 -2l-2 102c-41 -17 -69 -49 -69 -86c0 -92 220 -104 220 -271c0 -93 -69 -157 -175 -225l-151 -6l-11 228l123 4l9 -119c43 30 78 63 78 101c0 86 -221 97 -221 271c0 100 73 164 173 207l-152 159l87 68l70 -83l72 84z" />
    <glyph glyph-name="uacute" unicode="&#xfa;" horiz-adv-x="497" 
d="M304 687l141 7c0 -11 -4 -228 -4 -330c0 -83 2 -154 21 -360l-139 -10l-10 141l-105 -131l-136 -10c-16 157 -18 260 -19 356l-2 337l142 7c0 -12 -2 -192 -2 -286c0 -106 3 -170 10 -252l103 119v412zM268 699l-98 71l109 150l110 -80z" />
    <glyph glyph-name="ucircumflex" unicode="&#xfb;" horiz-adv-x="497" 
d="M304 687l141 7c0 -11 -4 -228 -4 -330c0 -83 2 -154 21 -360l-139 -10l-10 141l-105 -131l-136 -10c-16 157 -18 260 -19 356l-2 337l142 7c0 -12 -2 -192 -2 -286c0 -106 3 -170 10 -252l103 119v412zM97 775l157 163l155 -160l-86 -68l-71 82l-71 -83z" />
    <glyph glyph-name="udieresis" unicode="&#xfc;" horiz-adv-x="497" 
d="M304 687l141 7c0 -11 -4 -228 -4 -330c0 -83 2 -154 21 -360l-139 -10l-10 141l-105 -131l-136 -10c-16 157 -18 260 -19 356l-2 337l142 7c0 -12 -2 -192 -2 -286c0 -106 3 -170 10 -252l103 119v412zM241 762l-135 -31l-28 126l135 31zM427 762l-134 -31l-29 126
l135 31z" />
    <glyph glyph-name="ugrave" unicode="&#xf9;" horiz-adv-x="497" 
d="M304 687l141 7c0 -11 -4 -228 -4 -330c0 -83 2 -154 21 -360l-139 -10l-10 141l-105 -131l-136 -10c-16 157 -18 260 -19 356l-2 337l142 7c0 -12 -2 -192 -2 -286c0 -106 3 -170 10 -252l103 119v412zM335 770l-98 -71l-121 141l110 80z" />
    <glyph glyph-name="yacute" unicode="&#xfd;" 
d="M151 0l2 237l-158 436l138 40l94 -324l78 301h148l-164 -464l3 -226h-141zM240 699l-99 71l109 150l110 -80z" />
    <glyph glyph-name="ydieresis" unicode="&#xff;" 
d="M151 0l2 237l-158 436l138 40l94 -324l78 301h148l-164 -464l3 -226h-141zM212 762l-135 -31l-28 126l135 31zM398 762l-134 -31l-29 126l135 31z" />
    <glyph glyph-name="zcaron" unicode="&#x17e;" horiz-adv-x="439" 
d="M376 850l-155 -160l172 9l6 -151l-243 -447l133 9l6 120h120l-6 -230h-381l-6 124l256 456h-113l-5 -118l-118 2l5 217l168 9l-152 158l87 68l70 -83l72 84z" />
    <glyph glyph-name="commaaccent" unicode="&#xf6c3;" horiz-adv-x="207" 
d="M46 -38l125 3l-16 -198l-110 -2z" />
    <glyph glyph-name="Abreve" unicode="&#x102;" 
d="M305 0l-21 151l-62 -3l-65 3l-24 -151h-132l128 687l197 8l121 -695h-142zM272 882h115c-5 -111 -70 -160 -165 -160c-97 0 -156 51 -162 160h115c1 -43 16 -70 49 -70c32 0 46 25 48 70zM176 270l46 3l44 -3l-43 300z" />
    <glyph glyph-name="Amacron" unicode="&#x100;" 
d="M305 0l-21 151l-62 -3l-65 3l-24 -151h-132l128 687l197 8l121 -695h-142zM380 749h-312v114h312v-114zM176 270l46 3l44 -3l-43 300z" />
    <glyph glyph-name="Aogonek" unicode="&#x104;" horiz-adv-x="450" 
d="M403 -82l66 -70c-35 -42 -77 -61 -132 -61c-89 0 -140 49 -140 114c0 47 24 97 102 139l-15 111l-62 -3l-65 3l-24 -151h-132l128 687l197 8l121 -695c-100 -16 -137 -46 -137 -84c0 -20 10 -34 34 -34c23 0 42 13 59 36zM176 270l46 3l44 -3l-43 300z" />
    <glyph glyph-name="Cacute" unicode="&#x106;" horiz-adv-x="434" 
d="M390 457l-126 -3l-2 121h-73c-17 -65 -26 -127 -26 -194c0 -107 22 -205 100 -267l5 146l126 3l-5 -256l-194 -14c-125 98 -168 222 -168 377c0 104 19 210 55 313l310 14zM243 699l-99 71l110 150l110 -80z" />
    <glyph glyph-name="Ccaron" unicode="&#x10c;" horiz-adv-x="434" 
d="M383 850l-155 -161l164 8l-2 -240l-126 -3l-2 121h-73c-17 -65 -26 -127 -26 -194c0 -107 22 -205 100 -267l5 146l126 3l-5 -256l-194 -14c-125 98 -168 222 -168 377c0 104 19 210 55 313l142 6l-153 159l86 68l71 -83l72 84z" />
    <glyph glyph-name="Ccircumflex" unicode="&#x108;" horiz-adv-x="434" 
d="M390 457l-126 -3l-2 121h-73c-17 -65 -26 -127 -26 -194c0 -107 22 -205 100 -267l5 146l126 3l-5 -256l-194 -14c-125 98 -168 222 -168 377c0 104 19 210 55 313l310 14zM71 775l158 163l154 -160l-86 -68l-71 82l-71 -83z" />
    <glyph glyph-name="Cdotaccent" unicode="&#x10a;" horiz-adv-x="434" 
d="M390 457l-126 -3l-2 121h-73c-17 -65 -26 -127 -26 -194c0 -107 22 -205 100 -267l5 146l126 3l-5 -256l-194 -14c-125 98 -168 222 -168 377c0 104 19 210 55 313l310 14zM317 783l-138 -49l-41 125l137 48z" />
    <glyph glyph-name="Dcaron" unicode="&#x10e;" horiz-adv-x="452" 
d="M368 850l-155 -159l138 6c52 -124 75 -235 75 -334c0 -146 -49 -267 -182 -363l-192 -3l1 349l-2 337l156 7l-152 158l87 68l70 -83l72 84zM180 356l1 -253c75 51 109 127 109 238c0 69 -13 148 -42 236h-68v-221z" />
    <glyph glyph-name="Dcroat" unicode="&#x110;" horiz-adv-x="452" 
d="M52 -3l1 292h-36v122h36l-2 272l300 14c52 -124 75 -235 75 -334c0 -146 -49 -267 -182 -363zM239 289h-59l1 -186c75 51 109 127 109 238c0 69 -13 148 -42 236h-68v-166h59v-122z" />
    <glyph glyph-name="Ebreve" unicode="&#x114;" horiz-adv-x="449" 
d="M282 216l125 3l-1 -219h-355l3 354l-3 327l355 17l-1 -198l-126 -3v82h-97v-166l165 7v-124l-165 4v-192l98 4zM286 882h115c-5 -111 -71 -160 -166 -160c-96 0 -156 51 -161 160h114c2 -43 17 -70 49 -70c33 0 47 25 49 70z" />
    <glyph glyph-name="Ecaron" unicode="&#x11a;" horiz-adv-x="449" 
d="M394 850l-155 -160l167 8l-1 -198l-126 -3v82h-97v-166l165 7v-124l-165 4v-192l98 4l2 104l125 3l-1 -219h-355l3 354l-3 327l182 8l-152 159l87 68l70 -83l72 84z" />
    <glyph glyph-name="Edotaccent" unicode="&#x116;" horiz-adv-x="449" 
d="M282 216l125 3l-1 -219h-355l3 354l-3 327l355 17l-1 -198l-126 -3v82h-97v-166l165 7v-124l-165 4v-192l98 4zM327 783l-137 -49l-42 125l137 48z" />
    <glyph glyph-name="Emacron" unicode="&#x112;" horiz-adv-x="449" 
d="M282 216l125 3l-1 -219h-355l3 354l-3 327l355 17l-1 -198l-126 -3v82h-97v-166l165 7v-124l-165 4v-192l98 4zM393 749h-311v114h311v-114z" />
    <glyph glyph-name="Eogonek" unicode="&#x118;" horiz-adv-x="449" 
d="M282 216l125 3l-1 -219c-102 -20 -137 -50 -137 -84c0 -20 9 -34 34 -34c22 0 42 13 59 36l66 -70c-35 -42 -77 -61 -132 -61c-90 0 -140 49 -140 114c0 36 12 68 54 99h-159l3 354l-3 327l355 17l-1 -198l-126 -3v82h-97v-166l165 7v-124l-165 4v-192l98 4z" />
    <glyph glyph-name="Gbreve" unicode="&#x11e;" horiz-adv-x="457" 
d="M400 7l-177 -14c-143 89 -198 219 -198 381c0 100 21 207 56 309l318 14l-2 -204l-128 -2l-1 86h-81c-17 -62 -27 -129 -27 -195c0 -112 28 -217 119 -283v171l-59 3v109h222v-110l-39 -2zM277 882h115c-5 -111 -70 -160 -165 -160c-97 0 -156 51 -162 160h115
c2 -43 16 -70 49 -70c32 0 46 25 48 70z" />
    <glyph glyph-name="Gcircumflex" unicode="&#x11c;" horiz-adv-x="457" 
d="M400 7l-177 -14c-143 89 -198 219 -198 381c0 100 21 207 56 309l318 14l-2 -204l-128 -2l-1 86h-81c-17 -62 -27 -129 -27 -195c0 -112 28 -217 119 -283v171l-59 3v109h222v-110l-39 -2zM73 775l157 163l155 -160l-86 -68l-71 82l-71 -83z" />
    <glyph glyph-name="Gcommaaccent" unicode="&#x122;" horiz-adv-x="457" 
d="M400 7l-177 -14c-143 89 -198 219 -198 381c0 100 21 207 56 309l318 14l-2 -204l-128 -2l-1 86h-81c-17 -62 -27 -129 -27 -195c0 -112 28 -217 119 -283v171l-59 3v109h222v-110l-39 -2zM166 -38l125 3l-17 -198l-109 -2z" />
    <glyph glyph-name="Gdotaccent" unicode="&#x120;" horiz-adv-x="457" 
d="M400 7l-177 -14c-143 89 -198 219 -198 381c0 100 21 207 56 309l318 14l-2 -204l-128 -2l-1 86h-81c-17 -62 -27 -129 -27 -195c0 -112 28 -217 119 -283v171l-59 3v109h222v-110l-39 -2zM318 783l-137 -49l-41 125l137 48z" />
    <glyph glyph-name="Hbar" unicode="&#x126;" horiz-adv-x="513" 
d="M513 494h-60l-2 -146l5 -348h-141l2 285l-61 -4l-59 4l1 -285h-141l4 348l-2 146h-59v102h58l-1 94h141l-1 -94h119l-1 94h141l-1 -94h58v-102zM317 415l-1 79h-119v-79l59 4z" />
    <glyph glyph-name="Hcircumflex" unicode="&#x124;" horiz-adv-x="500" 
d="M191 690l-1 -273l60 4l60 -4l-1 273h141l-5 -342l5 -348h-141l1 285l-60 -4l-60 4l1 -285h-141l5 348l-5 342h141zM94 775l157 163l155 -160l-86 -68l-71 82l-71 -83z" />
    <glyph glyph-name="Imacron" unicode="&#x12a;" horiz-adv-x="241" 
d="M50 690h141l-3 -337l3 -353h-141l3 353zM277 749h-312v114h312v-114z" />
    <glyph glyph-name="Iogonek" unicode="&#x12e;" horiz-adv-x="244" 
d="M53 690h141l-3 -337l3 -353c-70 -20 -103 -40 -103 -78c0 -22 10 -40 35 -40c21 0 41 13 58 36l66 -70c-35 -42 -77 -61 -131 -61c-93 0 -140 55 -140 122c0 43 18 84 75 124l2 320z" />
    <glyph glyph-name="Itilde" unicode="&#x128;" horiz-adv-x="241" 
d="M50 690h141l-3 -337l3 -353h-141l3 353zM235 887l61 -80c-39 -44 -73 -74 -124 -74c-49 0 -80 27 -110 27c-23 0 -37 -15 -56 -34l-61 78c40 45 73 75 124 75c49 0 80 -27 110 -27c23 0 36 15 56 35z" />
    <glyph glyph-name="Kcommaaccent" unicode="&#x136;" horiz-adv-x="471" 
d="M50 690h141l-1 -294c92 82 105 169 105 292l139 4c0 -131 -7 -238 -101 -341l139 -351h-153l-93 260c-11 -8 -23 -16 -36 -23l1 -237h-141l5 349zM182 -38l124 3l-16 -198l-109 -2z" />
    <glyph glyph-name="Lacute" unicode="&#x139;" horiz-adv-x="413" 
d="M285 239l126 1l-2 -240h-358l4 259l-4 431h141l-2 -576l92 6zM163 699l-99 71l110 150l110 -80z" />
    <glyph glyph-name="Lcaron" unicode="&#x13d;" horiz-adv-x="426" 
d="M285 239l126 1l-2 -240h-358l4 259l-4 431h141l-2 -576l92 6zM233 694l126 3l-18 -217l-111 -1z" />
    <glyph glyph-name="Lcommaaccent" unicode="&#x13b;" horiz-adv-x="426" 
d="M285 239l126 1l-2 -240h-358l4 259l-4 431h141l-2 -576l92 6zM163 -38l125 3l-16 -198l-110 -2z" />
    <glyph glyph-name="Nacute" unicode="&#x143;" horiz-adv-x="514" 
d="M170 0h-123l6 688l172 5l124 -528l-8 525h122l-6 -689l-171 -4l-125 531zM282 699l-99 71l109 150l111 -80z" />
    <glyph glyph-name="Ncaron" unicode="&#x147;" horiz-adv-x="514" 
d="M170 0h-123l6 688l172 5l124 -528l-8 525h122l-6 -689l-171 -4l-125 531zM422 850l-157 -163l-155 161l86 68l71 -83l71 84z" />
    <glyph glyph-name="Ncommaaccent" unicode="&#x145;" horiz-adv-x="514" 
d="M170 0h-123l6 688l172 5l124 -528l-8 525h122l-6 -689l-171 -4l-125 531zM181 -38l124 3l-16 -198l-110 -2z" />
    <glyph glyph-name="Obreve" unicode="&#x14e;" 
d="M276 3l-157 -7c-62 110 -99 232 -99 351c0 132 45 249 151 342l157 7c62 -112 99 -232 99 -352c0 -131 -45 -248 -151 -341zM210 115c56 63 78 138 78 217c0 81 -21 163 -51 245c-56 -63 -79 -137 -79 -218c0 -80 22 -163 52 -244zM283 882h115
c-5 -111 -70 -160 -165 -160c-97 0 -156 51 -162 160h115c2 -43 16 -70 49 -70s46 25 48 70z" />
    <glyph glyph-name="Ohungarumlaut" unicode="&#x150;" 
d="M276 3l-157 -7c-62 110 -99 232 -99 351c0 132 45 249 151 342l157 7c62 -112 99 -232 99 -352c0 -131 -45 -248 -151 -341zM210 115c56 63 78 138 78 217c0 81 -21 163 -51 245c-56 -63 -79 -137 -79 -218c0 -80 22 -163 52 -244zM163 699l-97 60l122 199l107 -68z
M351 699l-96 60l122 199l107 -68z" />
    <glyph glyph-name="Omacron" unicode="&#x14c;" 
d="M276 3l-157 -7c-62 110 -99 232 -99 351c0 132 45 249 151 342l157 7c62 -112 99 -232 99 -352c0 -131 -45 -248 -151 -341zM210 115c56 63 78 138 78 217c0 81 -21 163 -51 245c-56 -63 -79 -137 -79 -218c0 -80 22 -163 52 -244zM391 749h-312v114h312v-114z" />
    <glyph glyph-name="Racute" unicode="&#x154;" horiz-adv-x="444" 
d="M185 0h-134l3 349l-3 334l328 14c17 -54 29 -116 29 -173c0 -79 -24 -142 -86 -194l119 -330h-149l-80 265l-28 -11zM238 699l-99 71l109 150l111 -80zM183 581l-2 -199c71 27 97 71 97 126c0 26 -5 54 -11 73h-84z" />
    <glyph glyph-name="Rcaron" unicode="&#x158;" horiz-adv-x="444" 
d="M378 850l-154 -160l155 7c17 -54 29 -116 29 -173c0 -79 -24 -142 -86 -194l119 -330h-149l-80 265l-28 -11l1 -254h-134l3 349l-3 334l167 7l-152 158l86 68l71 -83l71 84zM183 581l-2 -199c71 27 97 71 97 126c0 26 -5 54 -11 73h-84z" />
    <glyph glyph-name="Rcommaaccent" unicode="&#x156;" horiz-adv-x="444" 
d="M185 0h-134l3 349l-3 334l328 14c17 -54 29 -116 29 -173c0 -79 -24 -142 -86 -194l119 -330h-149l-80 265l-28 -11zM166 -38l124 3l-16 -198l-109 -2zM183 581l-2 -199c71 27 97 71 97 126c0 26 -5 54 -11 73h-84z" />
    <glyph glyph-name="Sacute" unicode="&#x15a;" horiz-adv-x="380" 
d="M31 225l123 4l9 -119c43 30 78 63 78 101c0 86 -221 97 -221 271c0 100 74 165 175 208l142 4l1 -209l-119 -2l-2 102c-41 -17 -69 -49 -69 -86c0 -92 220 -104 220 -271c0 -93 -69 -157 -175 -225l-151 -6zM213 699l-98 71l109 150l110 -80z" />
    <glyph glyph-name="Scedilla" unicode="&#x15e;" horiz-adv-x="380" 
d="M31 225l123 4l9 -119c43 30 78 63 78 101c0 86 -221 97 -221 271c0 100 74 165 175 208l142 4l1 -209l-119 -2l-2 102c-41 -17 -69 -49 -69 -86c0 -92 220 -104 220 -271c0 -89 -64 -152 -164 -218l-4 -43c79 -22 108 -69 108 -115c0 -63 -54 -113 -195 -145l-25 89
c92 15 108 26 108 46c0 17 -16 35 -98 52l14 106l-70 -3z" />
    <glyph glyph-name="Scircumflex" unicode="&#x15c;" horiz-adv-x="380" 
d="M31 225l123 4l9 -119c43 30 78 63 78 101c0 86 -221 97 -221 271c0 100 74 165 175 208l142 4l1 -209l-119 -2l-2 102c-41 -17 -69 -49 -69 -86c0 -92 220 -104 220 -271c0 -93 -69 -157 -175 -225l-151 -6zM41 775l158 163l155 -160l-87 -68l-71 82l-71 -83z" />
    <glyph glyph-name="Scommaaccent" unicode="&#x218;" horiz-adv-x="380" 
d="M31 225l123 4l9 -119c43 30 78 63 78 101c0 86 -221 97 -221 271c0 100 74 165 175 208l142 4l1 -209l-119 -2l-2 102c-41 -17 -69 -49 -69 -86c0 -92 220 -104 220 -271c0 -93 -69 -157 -175 -225l-151 -6zM108 -38l125 3l-17 -198l-109 -2z" />
    <glyph glyph-name="Tcaron" unicode="&#x164;" horiz-adv-x="404" 
d="M358 850l-155 -160h197v-133l-131 5l3 -562h-140l3 562l-131 -5v133h194l-152 158l86 68l71 -83l71 84z" />
    <glyph glyph-name="Tcommaaccent" unicode="&#x162;" horiz-adv-x="404" 
d="M132 0l3 562l-131 -5v133h396v-133l-131 5l3 -562h-140zM144 -38l125 3l-17 -198l-109 -2z" />
    <glyph glyph-name="Ubreve" unicode="&#x16c;" horiz-adv-x="497" 
d="M304 687l141 7c0 -11 -4 -228 -4 -330c0 -83 2 -154 21 -360l-139 -10l-10 141l-105 -131l-136 -10c-16 157 -18 260 -19 356l-2 337l142 7c0 -12 -2 -192 -2 -286c0 -106 3 -170 10 -252l103 119v412zM301 882h115c-5 -111 -70 -160 -165 -160c-97 0 -156 51 -162 160
h114c2 -43 17 -70 50 -70c32 0 46 25 48 70z" />
    <glyph glyph-name="Uhungarumlaut" unicode="&#x170;" horiz-adv-x="497" 
d="M304 687l141 7c0 -11 -4 -228 -4 -330c0 -83 2 -154 21 -360l-139 -10l-10 141l-105 -131l-136 -10c-16 157 -18 260 -19 356l-2 337l142 7c0 -12 -2 -192 -2 -286c0 -106 3 -170 10 -252l103 119v412zM180 699l-96 60l122 199l107 -68zM369 699l-96 60l122 199l107 -68z
" />
    <glyph glyph-name="Umacron" unicode="&#x16a;" horiz-adv-x="497" 
d="M304 687l141 7c0 -11 -4 -228 -4 -330c0 -83 2 -154 21 -360l-139 -10l-10 141l-105 -131l-136 -10c-16 157 -18 260 -19 356l-2 337l142 7c0 -12 -2 -192 -2 -286c0 -106 3 -170 10 -252l103 119v412zM409 749h-312v114h312v-114z" />
    <glyph glyph-name="Uogonek" unicode="&#x172;" horiz-adv-x="497" 
d="M418 -93l66 -70c-35 -42 -77 -61 -132 -61c-89 0 -140 49 -140 114c0 46 30 86 109 132l-9 113l-104 -131l-136 -10c-16 157 -18 260 -19 356l-2 337l142 7c0 -12 -2 -192 -2 -286c0 -106 3 -170 10 -252l103 119v412l141 7c0 -11 -4 -228 -4 -330c0 -83 2 -154 21 -360
c-105 -33 -137 -79 -137 -99s10 -34 34 -34c23 0 42 13 59 36z" />
    <glyph glyph-name="Uring" unicode="&#x16e;" horiz-adv-x="497" 
d="M304 687l141 7c0 -11 -4 -228 -4 -330c0 -83 2 -154 21 -360l-139 -10l-10 141l-105 -131l-136 -10c-16 157 -18 260 -19 356l-2 337l142 7c0 -12 -2 -192 -2 -286c0 -106 3 -170 10 -252l103 119v412zM385 842c0 -73 -56 -120 -132 -120s-132 48 -132 120
c0 71 55 118 131 118c77 0 133 -47 133 -118zM293 842c0 26 -17 41 -40 41c-24 0 -40 -17 -40 -42c0 -26 17 -42 40 -42s40 17 40 43z" />
    <glyph glyph-name="Utilde" unicode="&#x168;" horiz-adv-x="497" 
d="M304 687l141 7c0 -11 -4 -228 -4 -330c0 -83 2 -154 21 -360l-139 -10l-10 141l-105 -131l-136 -10c-16 157 -18 260 -19 356l-2 337l142 7c0 -12 -2 -192 -2 -286c0 -106 3 -170 10 -252l103 119v412zM367 887l61 -80c-39 -44 -73 -74 -124 -74c-49 0 -80 27 -110 27
c-23 0 -38 -15 -56 -34l-61 78c40 45 73 75 124 75c49 0 80 -27 110 -27c23 0 36 15 56 35z" />
    <glyph glyph-name="Wcircumflex" unicode="&#x174;" horiz-adv-x="692" 
d="M9 686l145 11l54 -553l71 519l148 11l65 -523c32 145 48 279 48 399c0 54 -3 95 -5 137l129 9c5 -47 7 -86 7 -134c0 -165 -45 -372 -102 -560l-159 -5l-62 480l-67 -476l-174 -4zM196 775l158 163l155 -160l-87 -68l-71 82l-71 -83z" />
    <glyph glyph-name="Ycircumflex" unicode="&#x176;" 
d="M151 0l2 237l-158 436l138 40l94 -324l78 301h148l-164 -464l3 -226h-141zM68 775l157 163l155 -160l-86 -68l-71 82l-71 -83z" />
    <glyph glyph-name="Zacute" unicode="&#x179;" horiz-adv-x="439" 
d="M160 462l-118 2l5 217l346 18l6 -151l-243 -447l133 9l6 120h120l-6 -230h-381l-6 124l256 456h-113zM235 699l-98 71l109 150l110 -80z" />
    <glyph glyph-name="Zdotaccent" unicode="&#x17b;" horiz-adv-x="439" 
d="M160 462l-118 2l5 217l346 18l6 -151l-243 -447l133 9l6 120h120l-6 -230h-381l-6 124l256 456h-113zM309 783l-137 -49l-42 125l137 48z" />
    <glyph glyph-name="Idotaccent" unicode="&#x130;" horiz-adv-x="241" 
d="M50 690h141l-3 -337l3 -353h-141l3 353zM210 783l-137 -49l-41 125l137 48z" />
    <glyph glyph-name="lacute" unicode="&#x13a;" horiz-adv-x="230" 
d="M190 4l-134 -9c-14 103 -9 207 -9 266v189c0 137 -3 253 -3 276l86 11l-97 70l109 150l110 -79l-120 -140l54 7c0 -26 -8 -104 -8 -222v-259c0 -64 -2 -154 12 -260z" />
    <glyph glyph-name="Delta" unicode="&#x2206;" horiz-adv-x="418" 
d="M1 0v114l131 576h158l128 -576v-114h-417zM127 106h155l-80 473z" />
    <glyph glyph-name="Omega" unicode="&#x2126;" horiz-adv-x="495" 
d="M460 112v-112h-195v107c26 39 44 109 44 266c0 140 -10 237 -59 237c-44 0 -62 -76 -62 -227c0 -154 16 -233 45 -276v-107h-198v112l70 -4c-37 60 -63 147 -63 279c0 217 73 338 209 338c142 0 203 -133 203 -336c0 -131 -25 -220 -65 -281z" />
    <glyph glyph-name="pi" unicode="&#x3c0;" horiz-adv-x="494" 
d="M308 565h-122l3 -565h-139l3 682l389 15l3 -697h-139z" />
    <glyph glyph-name="afii10017" unicode="&#x410;" horiz-adv-x="448" 
d="M305 0l-21 151l-62 -3l-65 3l-24 -151h-132l128 687l197 8l121 -695h-142zM176 270l47 3l43 -3l-43 300z" />
    <glyph glyph-name="afii10018" unicode="&#x411;" horiz-adv-x="460" 
d="M51 -2l3 359l-3 325l352 16l-2 -194l-125 -3l-1 79h-93l-1 -199l82 38l126 7c29 -75 46 -140 46 -201c0 -114 -59 -178 -202 -224zM274 315l-93 -36l1 -173c81 21 112 58 112 115c0 29 -9 65 -20 94z" />
    <glyph glyph-name="afii10019" unicode="&#x412;" horiz-adv-x="451" 
d="M52 -2l3 359l-3 326l325 15c26 -51 44 -110 44 -161c0 -63 -26 -112 -68 -152c49 -48 80 -110 80 -177c0 -94 -62 -162 -200 -207zM291 217c0 37 -17 70 -44 97c-21 -10 -43 -19 -67 -28l2 -181c76 23 109 60 109 112zM182 579l-2 -182c57 25 102 58 102 112
c0 25 -7 51 -14 70h-86z" />
    <glyph glyph-name="afii10020" unicode="&#x413;" horiz-adv-x="430" 
d="M191 0h-140l3 351l-3 330l355 17l-1 -231l-123 -1l-1 110h-92z" />
    <glyph glyph-name="afii10021" unicode="&#x414;" horiz-adv-x="492" 
d="M4 0v114l58 -2v48c0 196 25 364 105 526l245 11l11 -582l62 4l5 -136l-55 -121l-106 49l38 89h-363zM192 106l38 -1l61 3l-5 468h-35c-41 -101 -60 -227 -60 -390c0 -26 0 -52 1 -80z" />
    <glyph glyph-name="afii10022" unicode="&#x415;" horiz-adv-x="434" 
d="M390 495l-125 -4l-1 85h-78c-13 -51 -21 -105 -24 -159l169 9v-127l-165 6c11 -82 42 -150 101 -198l3 112l125 3l-1 -215l-175 -15c-138 90 -192 220 -192 382c0 99 20 206 55 309l310 14z" />
    <glyph glyph-name="afii10024" unicode="&#x416;" horiz-adv-x="669" 
d="M261 690h142l-3 -327l125 327h149l-149 -322l152 -368h-152l-125 355v-2l3 -353h-142l3 359v3l-126 -362h-148l150 362l-144 310l133 43l135 -345z" />
    <glyph glyph-name="afii10025" unicode="&#x417;" horiz-adv-x="431" 
d="M161 491l-120 -1l-2 195l165 11c126 -21 190 -76 190 -155c0 -60 -33 -128 -120 -163c105 -19 134 -87 134 -143c0 -92 -77 -182 -215 -234l-156 -2l-1 220l121 3l3 -104c65 27 102 70 102 116c0 43 -37 71 -173 67l-2 117c132 6 168 47 168 90s-35 64 -93 74z" />
    <glyph glyph-name="afii10026" unicode="&#x418;" horiz-adv-x="524" 
d="M476 0h-137l8 492l-126 -492h-169l4 349l-6 341h137l-8 -492l126 492h169l-4 -349z" />
    <glyph glyph-name="afii10027" unicode="&#x419;" horiz-adv-x="497" 
d="M105 832l86 51c21 -39 34 -60 54 -60s46 22 91 67l65 -63c-66 -72 -122 -105 -169 -105c-52 0 -95 39 -127 110zM304 687l141 7c0 -11 -4 -228 -4 -330c0 -83 2 -154 21 -360l-139 -10l-10 141l-105 -131l-136 -10c-16 157 -18 260 -19 356l-2 337l142 7
c0 -12 -2 -192 -2 -286c0 -106 3 -170 10 -252l103 119v412z" />
    <glyph glyph-name="afii10028" unicode="&#x41a;" horiz-adv-x="463" 
d="M50 690h142l-3 -328l126 328h148l-145 -322l148 -368h-152l-125 356v-3l3 -353h-142l5 353z" />
    <glyph glyph-name="afii10029" unicode="&#x41b;" horiz-adv-x="455" 
d="M411 2l-136 -5l-6 578h-43c-46 -104 -67 -253 -67 -423c0 -48 2 -99 5 -151l-131 -3c-2 46 -4 91 -4 135c0 205 27 389 113 553l253 11l5 -357z" />
    <glyph glyph-name="afii10030" unicode="&#x41c;" horiz-adv-x="672" 
d="M414 26l-156 -4l-48 283l-43 258l5 -563h-124l10 688l199 4l46 -286l38 -252l37 254l48 279l194 4l10 -691h-128l5 562l-43 -253z" />
    <glyph glyph-name="afii10031" unicode="&#x41d;" horiz-adv-x="500" 
d="M197 690l-1 -273l60 4l60 -4l-1 273h141l-5 -342l5 -348h-141l1 285l-60 -4l-60 4l1 -285h-141l5 348l-5 342h141z" />
    <glyph glyph-name="afii10032" unicode="&#x41e;" horiz-adv-x="457" 
d="M276 3l-157 -7c-62 110 -99 232 -99 351c0 132 45 249 151 342l157 7c62 -112 99 -232 99 -352c0 -131 -45 -248 -151 -341zM210 115c56 63 78 138 78 217c0 81 -22 163 -51 245c-56 -63 -79 -137 -79 -218c0 -80 22 -163 52 -244z" />
    <glyph glyph-name="afii10033" unicode="&#x41f;" horiz-adv-x="494" 
d="M308 565h-122l3 -565h-139l3 682l389 15l3 -697h-139z" />
    <glyph glyph-name="afii10034" unicode="&#x420;" horiz-adv-x="431" 
d="M186 578v-263c68 29 98 85 98 162c0 31 -5 64 -14 101h-84zM192 0h-141l3 348l-3 335l331 14c21 -77 34 -146 34 -205c0 -143 -67 -242 -226 -305z" />
    <glyph glyph-name="afii10035" unicode="&#x421;" horiz-adv-x="434" 
d="M390 457l-126 -3l-2 121h-73c-17 -65 -26 -127 -26 -194c0 -107 22 -205 100 -267l5 146l126 3l-5 -256l-194 -14c-125 98 -168 222 -168 377c0 104 19 210 55 313l310 14z" />
    <glyph glyph-name="afii10036" unicode="&#x422;" horiz-adv-x="418" 
d="M132 0l3 562l-131 -5v133h396v-133l-131 5l3 -562h-140z" />
    <glyph glyph-name="afii10037" unicode="&#x423;" horiz-adv-x="435" 
d="M257 -8l-198 -5l-18 201l116 8l-160 489l148 15l108 -404c17 74 26 158 26 255c0 43 -2 88 -7 136l139 10c3 -41 4 -81 4 -119c0 -245 -60 -424 -158 -586zM180 92c18 35 35 73 48 113l-56 -39z" />
    <glyph glyph-name="afii10038" unicode="&#x424;" horiz-adv-x="566" 
d="M216 701h138l-3 -83l93 3c72 -94 115 -193 115 -285c0 -109 -62 -208 -207 -277l2 -69h-138l2 85l-92 -3c-72 94 -115 193 -115 285c0 109 61 208 207 277zM144 364c0 -60 27 -126 77 -195v346c-53 -43 -77 -95 -77 -151zM426 329c0 60 -27 126 -77 195v-346
c53 43 77 95 77 151z" />
    <glyph glyph-name="afii10039" unicode="&#x425;" horiz-adv-x="461" 
d="M452 690l-124 -337l129 -335l-136 -42l-95 291l-75 -267h-149l126 352l-125 321l136 42l90 -275l73 250h150z" />
    <glyph glyph-name="afii10040" unicode="&#x426;" horiz-adv-x="511" 
d="M189 120h112l-3 570h140l-2 -569l66 4l6 -142l-55 -121l-107 49l39 89h-125l-206 -3l-2 693h140z" />
    <glyph glyph-name="afii10041" unicode="&#x427;" horiz-adv-x="470" 
d="M280 687l141 5c0 -11 -5 -202 -5 -334l3 -358h-141l9 297l-104 -103l-136 -9c-12 90 -16 177 -16 248l-1 254l143 5c0 -11 -5 -155 -5 -234c0 -38 3 -89 8 -129l104 90v268z" />
    <glyph glyph-name="afii10042" unicode="&#x428;" horiz-adv-x="727" 
d="M189 124l107 -2l-3 568h141l-3 -566l107 -2l-3 568h140l-2 -687l-619 -6l-2 693h140z" />
    <glyph glyph-name="afii10043" unicode="&#x429;" horiz-adv-x="747" 
d="M189 122l107 -1l-3 569h141l-3 -570h107l-3 570h140l-2 -568l66 3l6 -142l-56 -121l-106 49l39 89h-263l-305 -3l-2 693h140z" />
    <glyph glyph-name="afii10044" unicode="&#x42a;" horiz-adv-x="535" 
d="M131 -2l4 560l-131 -5v137h265l-4 -271l88 49l113 7c31 -77 48 -156 48 -219c0 -122 -62 -207 -186 -255zM353 360l-88 -46l1 -215c73 22 108 75 108 146c0 34 -8 78 -21 115z" />
    <glyph glyph-name="afii10045" unicode="&#x42b;" horiz-adv-x="675" 
d="M52 -2l3 359l-5 333h142l-5 -271l87 49l113 7c31 -77 48 -156 48 -219c0 -122 -62 -207 -186 -255zM483 690h141l-3 -337l3 -353h-141l3 353zM274 360l-88 -45l1 -216c74 22 107 75 107 146c0 34 -7 78 -20 115z" />
    <glyph glyph-name="afii10046" unicode="&#x42c;" horiz-adv-x="456" 
d="M52 -2l3 359l-5 333h142l-5 -271l87 49l113 7c31 -77 48 -156 48 -219c0 -122 -62 -207 -186 -255zM274 360l-88 -45l1 -216c74 22 107 75 107 146c0 34 -7 78 -20 115z" />
    <glyph glyph-name="afii10047" unicode="&#x42d;" horiz-adv-x="440" 
d="M47 -2l-4 215l128 2l4 -96c58 55 89 110 101 177l-174 -10l-1 132l180 -6c-8 93 -44 144 -112 165l-1 -87l-126 -2l-2 198l177 10c146 -50 204 -172 204 -315c0 -145 -60 -279 -201 -379z" />
    <glyph glyph-name="afii10048" unicode="&#x42e;" horiz-adv-x="654" 
d="M191 690l-1 -273l30 2l28 -3c13 104 56 197 138 273l155 7c58 -111 93 -233 93 -352c0 -133 -43 -249 -141 -341l-156 -7c-48 92 -80 191 -90 290l-27 -3l-30 3l1 -286h-141l5 350l-5 340h141zM427 115c51 62 72 137 72 217c0 81 -21 163 -48 245
c-52 -63 -72 -138 -72 -217c0 -81 21 -163 48 -245z" />
    <glyph glyph-name="afii10049" unicode="&#x42f;" horiz-adv-x="444" 
d="M394 0h-134l5 236c-15 5 -28 11 -41 18l-76 -254h-146l115 322c-56 51 -80 111 -80 185c0 51 12 108 33 176l324 14l-3 -348zM264 375l-2 205h-83c-7 -22 -11 -45 -11 -66c0 -59 28 -109 96 -139z" />
    <glyph glyph-name="afii10023" unicode="&#x401;" horiz-adv-x="449" 
d="M282 216l125 3l-1 -219h-355l3 354l-3 327l355 17l-1 -198l-126 -3v82h-97v-166l165 7v-124l-165 4v-192l98 4zM226 762l-135 -31l-28 126l134 31zM411 762l-134 -31l-28 126l134 31z" />
    <glyph glyph-name="afii10051" unicode="&#x402;" horiz-adv-x="543" 
d="M131 0l3 555l-130 -5v140h390v-140l-130 5l1 -190l87 105l130 12c13 -98 18 -218 18 -309c0 -132 -14 -253 -58 -368l-126 33c35 101 50 202 50 313c0 49 -3 128 -8 173l-92 -98l1 -226h-136z" />
    <glyph glyph-name="afii10052" unicode="&#x403;" horiz-adv-x="430" 
d="M191 0h-140l3 351l-3 330l355 17l-1 -231l-123 -1l-1 110h-92zM232 704l-99 71l109 150l110 -79z" />
    <glyph glyph-name="afii10054" unicode="&#x405;" horiz-adv-x="391" 
d="M31 225l123 4l9 -119c43 30 78 63 78 101c0 86 -221 97 -221 271c0 100 74 165 175 208l142 4l1 -209l-119 -2l-2 102c-41 -17 -69 -49 -69 -86c0 -92 220 -104 220 -271c0 -93 -69 -157 -175 -225l-151 -6z" />
    <glyph glyph-name="afii10056" unicode="&#x407;" horiz-adv-x="241" 
d="M50 690h141l-3 -337l3 -353h-141l3 353zM109 762l-135 -31l-27 126l134 31zM295 762l-134 -31l-29 126l135 31z" />
    <glyph glyph-name="afii10057" unicode="&#x408;" horiz-adv-x="349" 
d="M159 690h141l-3 -600c-1 -127 -27 -193 -131 -284l-167 -4l-4 243l114 2l1 -111c41 38 53 74 53 158c0 110 -4 450 -4 596z" />
    <glyph glyph-name="afii10058" unicode="&#x409;" horiz-adv-x="669" 
d="M275 -2l-6 577h-43c-45 -107 -67 -260 -67 -435c0 -44 2 -91 5 -139l-131 -3c-2 45 -4 89 -4 133c0 206 26 390 113 555l253 11l4 -281l88 49l113 7c31 -76 48 -153 48 -216c0 -122 -62 -207 -186 -255zM487 357l-86 -45l7 -211c68 24 100 75 100 144c0 34 -8 75 -21 112
z" />
    <glyph glyph-name="afii10059" unicode="&#x40a;" horiz-adv-x="716" 
d="M309 -1l1 287l-60 -4l-60 4l1 -286h-141l5 348l-5 342h141l-1 -273l60 3l60 -3l-1 273h141l-4 -271l88 49l113 7c31 -77 47 -156 47 -219c0 -122 -61 -207 -185 -255zM534 357l-89 -48l3 -210c73 22 106 75 106 146c0 34 -7 75 -20 112z" />
    <glyph glyph-name="afii10060" unicode="&#x40b;" horiz-adv-x="542" 
d="M131 0l3 555l-130 -5v140h390v-140l-130 5l1 -190l87 106l130 9c13 -106 15 -172 15 -241c0 -80 1 -160 1 -239h-136c0 8 3 114 3 173c0 61 -3 111 -8 150l-91 -97l1 -226h-136z" />
    <glyph glyph-name="afii10061" unicode="&#x40c;" horiz-adv-x="459" 
d="M50 690h142l-3 -328l126 328h148l-145 -322l148 -368h-152l-125 356v-3l3 -353h-142l5 353zM246 690l-99 70l109 150l111 -79z" />
    <glyph glyph-name="afii10145" unicode="&#x40f;" horiz-adv-x="490" 
d="M189 121h112l-3 569h140l-2 -690h-117l-66 -138l-106 49l39 89h-132l-2 690h140z" />
    <glyph glyph-name="Euro" unicode="&#x20ac;" horiz-adv-x="424" 
d="M339 456l-19 -91l-150 2v-9c0 -9 0 -18 1 -27l145 1l-18 -90l-111 1c16 -54 43 -102 77 -137l2 80l123 2l-1 -184l-198 -10c-76 64 -129 148 -151 248h-55l18 90h27c-1 6 -1 11 -1 17s0 11 1 17l-48 -1l18 93l41 -1c22 99 75 182 161 231l190 6l-1 -180l-123 -1l-1 75
c-42 -27 -70 -77 -84 -133z" />
    <glyph glyph-name="partialdiff" unicode="&#x2202;" horiz-adv-x="417" 
d="M2 647l96 92c227 -222 293 -336 293 -469c0 -106 -42 -195 -143 -267l-146 -9c-49 83 -79 177 -79 260c0 88 34 162 136 241c-57 68 -127 123 -157 152zM259 252c0 42 -8 93 -43 159c-49 -49 -61 -92 -61 -138c0 -50 15 -116 40 -167c45 42 64 83 64 146z" />
    <glyph glyph-name="product" unicode="&#x220f;" horiz-adv-x="576" 
d="M556 586h-69v-686h-139v686h-119v-686h-139v686h-69v124h535v-124z" />
    <glyph glyph-name="summation" unicode="&#x2211;" horiz-adv-x="420" 
d="M406 -100h-393v116l165 286l-158 289v119h372v-114h-224l153 -289l-168 -291h253v-116z" />
    <glyph glyph-name="radical" unicode="&#x221a;" horiz-adv-x="449" 
d="M221 16l108 841h165v-106h-62l-148 -890h-127l-79 402l-50 -14l-27 108l160 39z" />
    <glyph glyph-name="infinity" unicode="&#x221e;" horiz-adv-x="695" 
d="M671 346c0 -124 -75 -200 -166 -200c-64 0 -109 38 -159 116c-50 -71 -104 -116 -166 -116c-85 0 -156 80 -156 198c0 120 72 200 166 200c64 0 111 -40 162 -117c49 71 102 117 166 117c85 0 153 -81 153 -198zM201 275c21 0 34 15 75 70c-32 49 -51 73 -76 73
c-29 0 -45 -31 -45 -72c0 -43 18 -71 46 -71zM494 418c-27 0 -39 -25 -73 -71c37 -53 52 -72 76 -72c30 0 44 34 44 72c0 42 -18 71 -47 71z" />
    <glyph glyph-name="integral" unicode="&#x222b;" horiz-adv-x="253" 
d="M275 864l-12 -108c-7 3 -17 8 -30 8c-39 0 -48 -48 -48 -167c0 -156 13 -350 13 -498c0 -176 -39 -286 -158 -286c-26 0 -50 6 -62 13l13 107c6 -3 17 -7 29 -7c40 0 48 47 48 166c0 156 -14 350 -14 498c0 177 40 287 159 287c26 0 50 -6 62 -13z" />
    <glyph glyph-name="approxequal" unicode="&#x2248;" horiz-adv-x="377" 
d="M307 528l68 -90c-44 -49 -80 -76 -125 -76c-50 0 -86 38 -122 38c-18 0 -40 -10 -66 -38l-60 87c47 51 81 81 127 81c55 0 90 -45 120 -45c18 0 37 16 58 43zM315 328l60 -87c-46 -51 -80 -80 -126 -80c-55 0 -90 45 -121 45c-18 0 -37 -17 -58 -44l-68 90
c45 49 80 76 125 76c50 0 87 -37 123 -37c18 0 39 8 65 37z" />
    <glyph glyph-name="notequal" unicode="&#x2260;" horiz-adv-x="377" 
d="M351 187l-155 4l-31 -133l-88 21l28 110l-78 -2v125l109 -3l12 46l6 27l-127 -3v124l154 -4l31 133l88 -21l-28 -110l79 2v-124l-110 2l-11 -45l-7 -28l128 4v-125z" />
    <glyph glyph-name="lessequal" unicode="&#x2264;" horiz-adv-x="377" 
d="M345 11l-144 4l-174 -4v115l174 -5l144 5v-115zM288 141l-253 142v126l253 142l49 -108l-193 -97l193 -98z" />
    <glyph glyph-name="greaterequal" unicode="&#x2265;" horiz-adv-x="377" 
d="M351 11l-145 4l-173 -4v115l173 -5l145 5v-115zM89 551l254 -142v-126l-254 -142l-48 107l193 97l-193 98z" />
    <glyph glyph-name="lozenge" unicode="&#x25ca;" horiz-adv-x="468" 
d="M444 345l-151 -404h-122l-147 404l151 404h121zM309 342l-75 281l-76 -275l76 -282z" />
    <glyph glyph-name="Ecyril" horiz-adv-x="438" 
d="M389 218l-1 -214l-183 -11c-130 91 -192 211 -192 358c0 138 56 275 197 338l177 5l-2 -196l-127 -4l-1 84c-64 -26 -95 -84 -104 -161l171 8v-127l-171 4c10 -82 44 -137 105 -184l4 97z" />
    <glyph glyph-name="Icyril" horiz-adv-x="241" 
d="M50 690h141l-3 -337l3 -353h-141l3 353z" />
    <glyph glyph-name="Ucyrilbreve" horiz-adv-x="435" 
d="M257 -8l-198 -5l-18 201l116 8l-160 489l148 15l108 -404c17 74 26 158 26 255c0 43 -2 88 -7 136l139 10c3 -41 4 -81 4 -119c0 -245 -60 -424 -158 -586zM70 818l87 51c20 -39 34 -60 53 -60c20 0 46 22 91 67l65 -62c-65 -73 -122 -106 -169 -106
c-52 0 -94 40 -127 110zM180 92c18 35 35 73 48 113l-56 -39z" />
    <glyph glyph-name="Geupturn" horiz-adv-x="428" 
d="M190 0h-140l3 351l-3 330l226 10l3 76h126l-1 -193h-216z" />
    <glyph glyph-name="oslash.alt" horiz-adv-x="450" 
d="M309 2l-141 -4l-28 -77l-124 51l55 144c-32 74 -48 157 -48 232c0 119 42 244 118 341l141 3l29 78l123 -51l-54 -145c31 -75 47 -157 47 -231c0 -120 -42 -244 -118 -341zM221 580c-37 -70 -57 -153 -57 -232c0 -88 22 -168 64 -237c38 70 58 152 58 231
c0 88 -23 169 -65 238z" />
    <glyph glyph-name="yen.alt" horiz-adv-x="424" 
d="M431 322v-115h-110c-33 -88 -76 -168 -128 -242l-115 73c41 61 74 115 100 169h-162v115h92l-106 358l149 23l79 -351c23 92 30 197 28 336l139 10c4 -136 -10 -261 -39 -376h73z" />
    <glyph glyph-name="Euro.alt" horiz-adv-x="424" 
d="M388 209l-1 -205l-194 -10c-90 74 -149 176 -163 300l-50 -1l17 122l35 -2c15 118 74 219 173 275l186 6l-2 -200l-125 -2l-1 88c-52 -32 -81 -98 -90 -168l148 2l-19 -123l-128 3c12 -73 43 -136 87 -180l2 93z" />
    <glyph glyph-name="Oslash.alt" horiz-adv-x="450" 
d="M309 2l-141 -4l-28 -77l-124 51l55 144c-32 74 -48 157 -48 232c0 119 42 244 118 341l141 3l29 78l123 -51l-54 -145c31 -75 47 -157 47 -231c0 -120 -42 -244 -118 -341zM221 580c-37 -70 -57 -153 -57 -232c0 -88 22 -168 64 -237c38 70 58 152 58 231
c0 88 -23 169 -65 238z" />
    </font>
</defs>
</svg>
