<?xml version="1.0" encoding="UTF-8" standalone="no"?>
<!-- Created with Inkscape (http://www.inkscape.org/) -->

<svg
   xmlns:dc="http://purl.org/dc/elements/1.1/"
   xmlns:cc="http://creativecommons.org/ns#"
   xmlns:rdf="http://www.w3.org/1999/02/22-rdf-syntax-ns#"
   xmlns:svg="http://www.w3.org/2000/svg"
   xmlns="http://www.w3.org/2000/svg"
   xmlns:sodipodi="http://sodipodi.sourceforge.net/DTD/sodipodi-0.dtd"
   xmlns:inkscape="http://www.inkscape.org/namespaces/inkscape"
   width="150"
   height="150"
   id="svg4560"
   version="1.1"
   inkscape:version="0.48.5 r10040"
   sodipodi:docname="reducer3.svg">
  <defs
     id="defs4562">
    <clipPath
       clipPathUnits="userSpaceOnUse"
       id="clipPath4612">
      <rect
         style="fill:#d40000;fill-opacity:1"
         id="rect4614"
         width="74.751289"
         height="70.710678"
         x="312.13715"
         y="497.78842" />
    </clipPath>
    <clipPath
       clipPathUnits="userSpaceOnUse"
       id="clipPath4616">
      <rect
         style="fill:#d40000;fill-opacity:1"
         id="rect4618"
         width="74.751289"
         height="70.710678"
         x="312.13715"
         y="497.78842" />
    </clipPath>
    <clipPath
       clipPathUnits="userSpaceOnUse"
       id="clipPath4620">
      <rect
         style="fill:#d40000;fill-opacity:1"
         id="rect4622"
         width="74.751289"
         height="70.710678"
         x="312.13715"
         y="497.78842" />
    </clipPath>
    <clipPath
       clipPathUnits="userSpaceOnUse"
       id="clipPath4624">
      <rect
         style="fill:#d40000;fill-opacity:1"
         id="rect4626"
         width="74.751289"
         height="70.710678"
         x="312.13715"
         y="497.78842" />
    </clipPath>
    <clipPath
       clipPathUnits="userSpaceOnUse"
       id="clipPath4628">
      <rect
         style="fill:#d40000;fill-opacity:1"
         id="rect4630"
         width="74.751289"
         height="70.710678"
         x="312.13715"
         y="497.78842" />
    </clipPath>
    <clipPath
       clipPathUnits="userSpaceOnUse"
       id="clipPath4632">
      <rect
         style="fill:#d40000;fill-opacity:1"
         id="rect4634"
         width="74.751289"
         height="70.710678"
         x="312.13715"
         y="497.78842" />
    </clipPath>
    <clipPath
       clipPathUnits="userSpaceOnUse"
       id="clipPath4636">
      <rect
         style="fill:#d40000;fill-opacity:1"
         id="rect4638"
         width="74.751289"
         height="70.710678"
         x="312.13715"
         y="497.78842" />
    </clipPath>
    <clipPath
       clipPathUnits="userSpaceOnUse"
       id="clipPath4640">
      <rect
         style="fill:#d40000;fill-opacity:1"
         id="rect4642"
         width="74.751289"
         height="70.710678"
         x="312.13715"
         y="497.78842" />
    </clipPath>
    <clipPath
       id="clipPath3800"
       clipPathUnits="userSpaceOnUse">
      <path
         inkscape:connector-curvature="0"
         id="path3802"
         clip-rule="evenodd"
         d="m 54,769.92 325.92,0 0,-99.84 -325.92,0 0,99.84 z" />
    </clipPath>
    <clipPath
       id="clipPath3810"
       clipPathUnits="userSpaceOnUse">
      <path
         inkscape:connector-curvature="0"
         id="path3812"
         clip-rule="evenodd"
         d="m 54,769.92 325.92,0 0,-99.84 -325.92,0 0,99.84 z" />
    </clipPath>
    <clipPath
       id="clipPath3820"
       clipPathUnits="userSpaceOnUse">
      <path
         inkscape:connector-curvature="0"
         id="path3822"
         clip-rule="evenodd"
         d="m 54,769.92 325.92,0 0,-99.84 -325.92,0 0,99.84 z" />
    </clipPath>
    <clipPath
       id="clipPath3830"
       clipPathUnits="userSpaceOnUse">
      <path
         inkscape:connector-curvature="0"
         id="path3832"
         clip-rule="evenodd"
         d="m 379.92,769.92 0,-99.84 -325.92,0 0,99.84 325.92,0 z" />
    </clipPath>
    <clipPath
       id="clipPath3840"
       clipPathUnits="userSpaceOnUse">
      <path
         inkscape:connector-curvature="0"
         id="path3842"
         clip-rule="evenodd"
         d="m 54,769.92 325.92,0 0,-99.84 -325.92,0 0,99.84 z" />
    </clipPath>
    <clipPath
       id="clipPath3850"
       clipPathUnits="userSpaceOnUse">
      <path
         inkscape:connector-curvature="0"
         id="path3852"
         clip-rule="evenodd"
         d="m 54,769.92 325.92,0 0,-99.84 -325.92,0 0,99.84 z" />
    </clipPath>
    <clipPath
       id="clipPath3860"
       clipPathUnits="userSpaceOnUse">
      <path
         inkscape:connector-curvature="0"
         id="path3862"
         clip-rule="evenodd"
         d="m 54,769.92 325.92,0 0,-99.84 -325.92,0 0,99.84 z" />
    </clipPath>
    <clipPath
       id="clipPath3870"
       clipPathUnits="userSpaceOnUse">
      <path
         inkscape:connector-curvature="0"
         id="path3872"
         clip-rule="evenodd"
         d="m 54,769.92 325.92,0 0,-99.84 -325.92,0 0,99.84 z" />
    </clipPath>
    <clipPath
       id="clipPath4553"
       clipPathUnits="userSpaceOnUse">
      <path
         inkscape:connector-curvature="0"
         id="path4555"
         clip-rule="evenodd"
         d="m 461.16,769.92 0,-160.2 -407.16,0 0,160.2 407.16,0 z" />
    </clipPath>
    <clipPath
       id="clipPath4597"
       clipPathUnits="userSpaceOnUse">
      <path
         inkscape:connector-curvature="0"
         id="path4599"
         clip-rule="evenodd"
         d="m 461.16,769.92 0,-160.2 -407.16,0 0,160.2 407.16,0 z" />
    </clipPath>
    <clipPath
       id="clipPath4633"
       clipPathUnits="userSpaceOnUse">
      <path
         inkscape:connector-curvature="0"
         id="path4635"
         clip-rule="evenodd"
         d="m 54,769.92 407.16,0 0,-160.2 -407.16,0 0,160.2 z" />
    </clipPath>
    <clipPath
       id="clipPath4615"
       clipPathUnits="userSpaceOnUse">
      <path
         inkscape:connector-curvature="0"
         id="path4617"
         clip-rule="evenodd"
         d="m 54,769.92 407.16,0 0,-160.2 -407.16,0 0,160.2 z" />
    </clipPath>
    <clipPath
       id="clipPath4567"
       clipPathUnits="userSpaceOnUse">
      <path
         inkscape:connector-curvature="0"
         id="path4569"
         clip-rule="evenodd"
         d="m 54,769.92 407.16,0 0,-160.2 -407.16,0 0,160.2 z" />
    </clipPath>
    <clipPath
       id="clipPath4577"
       clipPathUnits="userSpaceOnUse">
      <path
         inkscape:connector-curvature="0"
         id="path4579"
         clip-rule="evenodd"
         d="m 461.16,769.92 0,-160.2 -407.16,0 0,160.2 407.16,0 z" />
    </clipPath>
    <clipPath
       id="clipPath4746"
       clipPathUnits="userSpaceOnUse">
      <path
         inkscape:connector-curvature="0"
         id="path4748"
         clip-rule="evenodd"
         d="m 54,769.92 82.2,0 0,-160.2 -82.2,0 0,160.2 z" />
    </clipPath>
    <clipPath
       id="clipPath4756"
       clipPathUnits="userSpaceOnUse">
      <path
         inkscape:connector-curvature="0"
         id="path4758"
         clip-rule="evenodd"
         d="m 136.2,769.92 0,-160.2 -82.2,0 0,160.2 82.2,0 z" />
    </clipPath>
    <clipPath
       id="clipPath4647"
       clipPathUnits="userSpaceOnUse">
      <path
         inkscape:connector-curvature="0"
         id="path4649"
         clip-rule="evenodd"
         d="m 461.16,769.92 0,-160.2 -407.16,0 0,160.2 407.16,0 z" />
    </clipPath>
    <clipPath
       id="clipPath4657"
       clipPathUnits="userSpaceOnUse">
      <path
         inkscape:connector-curvature="0"
         id="path4659"
         clip-rule="evenodd"
         d="m 54,769.92 407.16,0 0,-160.2 -407.16,0 0,160.2 z" />
    </clipPath>
    <clipPath
       id="clipPath4772"
       clipPathUnits="userSpaceOnUse">
      <path
         inkscape:connector-curvature="0"
         id="path4774"
         clip-rule="evenodd"
         d="m 136.2,769.92 0,-160.2 -82.2,0 0,160.2 82.2,0 z" />
    </clipPath>
    <clipPath
       id="clipPath5155"
       clipPathUnits="userSpaceOnUse">
      <path
         inkscape:connector-curvature="0"
         id="path5157"
         clip-rule="evenodd"
         d="m 54,769.92 407.16,0 0,-98.4 -407.16,0 0,98.4 z" />
    </clipPath>
    <clipPath
       id="clipPath5165"
       clipPathUnits="userSpaceOnUse">
      <path
         inkscape:connector-curvature="0"
         id="path5167"
         clip-rule="evenodd"
         d="m 54,769.92 407.16,0 0,-98.4 -407.16,0 0,98.4 z" />
    </clipPath>
    <clipPath
       id="clipPath5135"
       clipPathUnits="userSpaceOnUse">
      <path
         inkscape:connector-curvature="0"
         id="path5137"
         clip-rule="evenodd"
         d="m 54,769.92 407.16,0 0,-98.4 -407.16,0 0,98.4 z" />
    </clipPath>
    <clipPath
       id="clipPath5145"
       clipPathUnits="userSpaceOnUse">
      <path
         inkscape:connector-curvature="0"
         id="path5147"
         clip-rule="evenodd"
         d="m 54,769.92 407.16,0 0,-98.4 -407.16,0 0,98.4 z" />
    </clipPath>
  </defs>
  <sodipodi:namedview
     id="base"
     pagecolor="#ffffff"
     bordercolor="#666666"
     borderopacity="1.0"
     inkscape:pageopacity="0.0"
     inkscape:pageshadow="2"
     inkscape:zoom="3.4404802"
     inkscape:cx="8.384138"
     inkscape:cy="50.469508"
     inkscape:document-units="px"
     inkscape:current-layer="layer1"
     showgrid="false"
     inkscape:window-width="1920"
     inkscape:window-height="1017"
     inkscape:window-x="-8"
     inkscape:window-y="-8"
     inkscape:window-maximized="1"
     showborder="true" />
  <metadata
     id="metadata4565">
    <rdf:RDF>
      <cc:Work
         rdf:about="">
        <dc:format>image/svg+xml</dc:format>
        <dc:type
           rdf:resource="http://purl.org/dc/dcmitype/StillImage" />
        <dc:title></dc:title>
      </cc:Work>
    </rdf:RDF>
  </metadata>
  <g
     inkscape:label="Ebene 1"
     inkscape:groupmode="layer"
     id="layer1"
     transform="translate(0,-902.3622)">
    <g
       transform="translate(-304.31892,417.4882)"
       id="g5991">
      <path
         id="path5672"
         style="fill:none;stroke:#000000;stroke-width:0.9375;stroke-linecap:butt;stroke-linejoin:round;stroke-miterlimit:10;stroke-opacity:1;stroke-dasharray:none"
         d="m 373.46892,572.624 13.8,-11.7875"
         inkscape:connector-curvature="0" />
      <path
         id="path5674"
         style="fill:none;stroke:#000000;stroke-width:0.9375;stroke-linecap:butt;stroke-linejoin:round;stroke-miterlimit:10;stroke-opacity:1;stroke-dasharray:none"
         d="m 373.46892,556.299 13.8,-3.625"
         inkscape:connector-curvature="0" />
      <path
         id="path5676"
         style="fill:none;stroke:#000000;stroke-width:0.9375;stroke-linecap:butt;stroke-linejoin:round;stroke-miterlimit:10;stroke-opacity:1;stroke-dasharray:none"
         d="m 373.46892,572.624 0,-16.325"
         inkscape:connector-curvature="0" />
      <path
         id="path5678"
         style="fill:none;stroke:#000000;stroke-width:0.9375;stroke-linecap:butt;stroke-linejoin:round;stroke-miterlimit:10;stroke-opacity:1;stroke-dasharray:none"
         d="m 387.26892,552.674 0,8.1625"
         inkscape:connector-curvature="0" />
      <g
         transform="matrix(1.25,0,0,-1.25,-36.181082,1437.824)"
         id="g5680">
        <path
           id="path5682"
           style="fill:none;stroke:#969696;stroke-width:0.25;stroke-linecap:butt;stroke-linejoin:round;stroke-miterlimit:10;stroke-opacity:1;stroke-dasharray:2, 0.75;stroke-dashoffset:0"
           d="M 326.16,699.36 308.76,690"
           inkscape:connector-curvature="0" />
      </g>
      <g
         transform="matrix(1.25,0,0,-1.25,-36.181082,1437.824)"
         id="g5756">
        <path
           id="path5758"
           style="fill:none;stroke:#969696;stroke-width:0.25;stroke-linecap:butt;stroke-linejoin:round;stroke-miterlimit:10;stroke-opacity:1;stroke-dasharray:2, 0.75;stroke-dashoffset:0"
           d="m 356.04,714.72 -17.28,-9.48"
           inkscape:connector-curvature="0" />
      </g>
    </g>
  </g>
</svg>
